<?xml version="1.0" encoding="utf-8"?>
<!-- Generator: Adobe Illustrator 13.0.1, SVG Export Plug-In . SVG Version: 6.00 Build 14948)  -->
<!DOCTYPE svg PUBLIC "-//W3C//DTD SVG 1.1//EN" "http://www.w3.org/Graphics/SVG/1.1/DTD/svg11.dtd">
<svg version="1.1" id="Layer_1" xmlns="http://www.w3.org/2000/svg" xmlns:xlink="http://www.w3.org/1999/xlink" x="0px" y="0px"
	 width="130px" height="104px" viewBox="8.406 395.147 130 104" enable-background="new 8.406 395.147 130 104"
	 xml:space="preserve">
<g>
	<g>
		<defs>
			<rect id="SVGID_1_" x="10.347" y="401.043" width="127.559" height="84.25"/>
		</defs>
		<clipPath id="SVGID_2_">
			<use xlink:href="#SVGID_1_"  overflow="visible"/>
		</clipPath>
		<g clip-path="url(#SVGID_2_)">
			<text transform="matrix(1 0 0 1 -2.441406e-004 17.5767)" font-family="'ArialMT'" font-size="21">Esimerk</text>
		</g>
	</g>
	<g>
		<defs>
			<rect id="SVGID_3_" x="10.347" y="401.043" width="127.559" height="84.25"/>
		</defs>
		<clipPath id="SVGID_4_">
			<use xlink:href="#SVGID_3_"  overflow="visible"/>
		</clipPath>
		<g clip-path="url(#SVGID_4_)">
			<text transform="matrix(1 0 0 1 68.3127 17.5767)" font-family="'ArialMT'" font-size="21">k</text>
		</g>
	</g>
	<g>
		<defs>
			<rect id="SVGID_5_" x="10.347" y="401.043" width="127.559" height="84.25"/>
		</defs>
		<clipPath id="SVGID_6_">
			<use xlink:href="#SVGID_5_"  overflow="visible"/>
		</clipPath>
		<g clip-path="url(#SVGID_6_)">
			<text transform="matrix(1 0 0 1 77.7839 17.5767)" font-family="'ArialMT'" font-size="21">e</text>
		</g>
	</g>
	<g>
		<defs>
			<rect id="SVGID_7_" x="10.347" y="401.043" width="127.559" height="84.25"/>
		</defs>
		<clipPath id="SVGID_8_">
			<use xlink:href="#SVGID_7_"  overflow="visible"/>
		</clipPath>
		<g clip-path="url(#SVGID_8_)">
			<text transform="matrix(1 0 0 1 88.2839 17.5767)" font-family="'ArialMT'" font-size="21">jä</text>
		</g>
	</g>
	<g>
		<defs>
			<rect id="SVGID_9_" x="10.347" y="401.043" width="127.559" height="84.25"/>
		</defs>
		<clipPath id="SVGID_10_">
			<use xlink:href="#SVGID_9_"  overflow="visible"/>
		</clipPath>
		<g clip-path="url(#SVGID_10_)">
			<text transform="matrix(1 0 0 1 103.5085 17.5767)" font-family="'ArialMT'" font-size="21"> </text>
		</g>
	</g>
	<g>
		<defs>
			<rect id="SVGID_11_" x="10.347" y="401.043" width="127.559" height="84.25"/>
		</defs>
		<clipPath id="SVGID_12_">
			<use xlink:href="#SVGID_11_"  overflow="visible"/>
		</clipPath>
		<g clip-path="url(#SVGID_12_)">
			<text transform="matrix(1 0 0 1 107.0369 17.5767)" font-family="'ArialMT'" font-size="21">tunnus</text>
		</g>
	</g>
	<g>
		<defs>
			<rect id="SVGID_13_" x="10.347" y="401.043" width="127.559" height="84.25"/>
		</defs>
		<clipPath id="SVGID_14_">
			<use xlink:href="#SVGID_13_"  overflow="visible"/>
		</clipPath>
		<g clip-path="url(#SVGID_14_)">
			<text transform="matrix(1 0 0 1 168.7551 17.5767)" font-family="'ArialMT'" font-size="21">v</text>
		</g>
	</g>
	<g>
		<defs>
			<rect id="SVGID_15_" x="10.347" y="401.043" width="127.559" height="84.25"/>
		</defs>
		<clipPath id="SVGID_16_">
			<use xlink:href="#SVGID_15_"  overflow="visible"/>
		</clipPath>
		<g clip-path="url(#SVGID_16_)">
			<text transform="matrix(1 0 0 1 178.6672 17.5767)" font-family="'ArialMT'" font-size="21">e</text>
		</g>
	</g>
	<g>
		<defs>
			<rect id="SVGID_17_" x="10.347" y="401.043" width="127.559" height="84.25"/>
		</defs>
		<clipPath id="SVGID_18_">
			<use xlink:href="#SVGID_17_"  overflow="visible"/>
		</clipPath>
		<g clip-path="url(#SVGID_18_)">
			<text transform="matrix(1 0 0 1 189.1887 17.5767)" font-family="'ArialMT'" font-size="21">r</text>
		</g>
	</g>
	<g>
		<defs>
			<rect id="SVGID_19_" x="10.347" y="401.043" width="127.559" height="84.25"/>
		</defs>
		<clipPath id="SVGID_20_">
			<use xlink:href="#SVGID_19_"  overflow="visible"/>
		</clipPath>
		<g clip-path="url(#SVGID_20_)">
			<text transform="matrix(1 0 0 1 196.2454 17.5767)" font-family="'ArialMT'" font-size="21">sioi</text>
		</g>
	</g>
	<g>
		<defs>
			<rect id="SVGID_21_" x="10.347" y="401.043" width="127.559" height="84.25"/>
		</defs>
		<clipPath id="SVGID_22_">
			<use xlink:href="#SVGID_21_"  overflow="visible"/>
		</clipPath>
		<g clip-path="url(#SVGID_22_)">
			<text transform="matrix(1 0 0 1 225.9172 17.5767)" font-family="'ArialMT'" font-size="21">s</text>
		</g>
	</g>
	<g>
		<defs>
			<rect id="SVGID_23_" x="10.347" y="401.043" width="127.559" height="84.25"/>
		</defs>
		<clipPath id="SVGID_24_">
			<use xlink:href="#SVGID_23_"  overflow="visible"/>
		</clipPath>
		<g clip-path="url(#SVGID_24_)">
			<text transform="matrix(1 0 0 1 234.3391 17.5767)" font-family="'ArialMT'" font-size="21">t</text>
		</g>
	</g>
	<g>
		<defs>
			<rect id="SVGID_25_" x="10.347" y="401.043" width="127.559" height="84.25"/>
		</defs>
		<clipPath id="SVGID_26_">
			<use xlink:href="#SVGID_25_"  overflow="visible"/>
		</clipPath>
		<g clip-path="url(#SVGID_26_)">
			<text transform="matrix(1 0 0 1 241.4368 17.5767)" font-family="'ArialMT'" font-size="21">a</text>
		</g>
	</g>
	<g>
		<defs>
			<rect id="SVGID_27_" x="10.347" y="401.043" width="127.559" height="84.25"/>
		</defs>
		<clipPath id="SVGID_28_">
			<use xlink:href="#SVGID_27_"  overflow="visible"/>
		</clipPath>
		<path clip-path="url(#SVGID_28_)" d="M91.604,142.725l-0.575,1.991c-0.101,0.393-0.174,0.695-0.229,0.987l-0.054-0.174
			c-0.103-0.365-0.103-0.374-0.229-0.785l-0.646-2.019H88.48l1.453,3.709c0.155,0.383,0.164,0.411,0.164,0.566
			c0,0.384-0.21,0.557-0.667,0.557h-0.383v0.978h0.758c0.986,0,1.196-0.183,1.607-1.361l1.533-4.449H91.604z M87.868,142.78h-0.794
			v-1.398h-1.299v1.398h-0.62v0.913h0.62v2.01c0,0.685,0.056,0.922,0.256,1.142c0.191,0.21,0.476,0.292,1.043,0.292h0.794v-0.977
			h-0.467c-0.302,0-0.328-0.055-0.328-0.749v-1.718h0.795V142.78z M84.26,141.045h-1.297v1.069h1.297V141.045z M84.26,142.725
			h-1.297v4.412h1.297V142.725z M82.031,144.05c-0.109-0.932-0.805-1.444-1.938-1.444c-1.169,0-1.881,0.539-1.881,1.425
			c0,0.704,0.374,1.06,1.342,1.27l0.804,0.183c0.349,0.082,0.493,0.201,0.493,0.402c0,0.255-0.272,0.429-0.675,0.429
			c-0.521,0-0.795-0.201-0.868-0.612h-1.215c0.073,0.977,0.831,1.553,2.055,1.553c1.226,0,1.982-0.585,1.982-1.517
			c0-0.356-0.118-0.685-0.329-0.886c-0.191-0.2-0.465-0.319-1.004-0.429l-0.813-0.173c-0.409-0.092-0.539-0.174-0.539-0.338
			c0-0.22,0.246-0.366,0.621-0.366c0.431,0,0.694,0.174,0.749,0.503H82.031z M74.752,142.725v4.412h1.297v-1.242
			c0-0.859,0.046-1.27,0.174-1.562c0.146-0.329,0.511-0.53,0.959-0.53c0.091,0,0.173,0.009,0.328,0.027v-1.224
			c-0.94-0.009-1.269,0.192-1.525,0.905l0.037-0.786H74.752z M70.696,144.397c0.102-0.512,0.431-0.804,0.933-0.804
			s0.804,0.292,0.858,0.804H70.696z M73.82,145.31c0-0.584-0.063-0.977-0.2-1.343c-0.319-0.876-1.032-1.361-1.982-1.361
			c-1.324,0-2.256,0.96-2.256,2.33c0,1.388,0.904,2.32,2.265,2.32c1.051,0,1.873-0.548,2.119-1.407H72.45
			c-0.184,0.274-0.421,0.393-0.768,0.393c-0.557,0-0.914-0.329-0.996-0.932H73.82z M67.399,147.137l1.498-4.412h-1.388l-0.448,1.69
			c-0.063,0.265-0.174,0.767-0.273,1.27c-0.146-0.53-0.257-0.959-0.348-1.27l-0.493-1.69h-1.36l1.58,4.412H67.399z M63.764,141.045
			h-1.297v1.069h1.297V141.045z M63.764,142.725h-1.297v4.412h1.297V142.725z M57.224,142.725v4.412h1.297v-2.475
			c0-0.384,0.045-0.567,0.191-0.731c0.137-0.155,0.338-0.238,0.558-0.238c0.229,0,0.42,0.092,0.529,0.256
			c0.11,0.165,0.137,0.338,0.137,0.786v2.402h1.297v-2.859c0-1.041-0.584-1.681-1.543-1.681c-0.457,0-0.722,0.119-1.206,0.557
			v-0.429H57.224z M54.611,141.045v4.028c0,0.411-0.063,0.593-0.246,0.767c-0.2,0.173-0.493,0.274-0.83,0.274
			c-0.329,0-0.622-0.101-0.823-0.274c-0.183-0.174-0.246-0.356-0.246-0.767v-4.028h-1.37v4.119c0,0.767,0.201,1.251,0.657,1.589
			c0.466,0.338,1.087,0.521,1.782,0.521c0.702,0,1.323-0.183,1.79-0.521c0.456-0.338,0.656-0.822,0.656-1.589v-4.119H54.611z
			 M45.651,143.639c0.667,0,1.041,0.465,1.041,1.315c0,0.795-0.384,1.27-1.041,1.27s-1.031-0.475-1.031-1.297
			C44.619,144.114,44.993,143.639,45.651,143.639 M45.651,142.606c-1.37,0-2.339,0.969-2.339,2.321c0,1.37,0.969,2.329,2.339,2.329
			c1.361,0,2.348-0.959,2.348-2.293C47.998,143.566,47.048,142.606,45.651,142.606 M42.737,142.78h-0.795v-1.398h-1.297v1.398
			h-0.621v0.913h0.621v2.01c0,0.685,0.056,0.922,0.256,1.142c0.192,0.21,0.476,0.292,1.041,0.292h0.795v-0.977h-0.466
			c-0.301,0-0.329-0.055-0.329-0.749v-1.718h0.795V142.78z M39.22,141.045h-1.297v6.092h1.297V141.045z M35.558,145.712
			c-0.211,0.375-0.521,0.557-0.95,0.557c-0.401,0-0.657-0.173-0.657-0.466c0-0.265,0.2-0.42,0.667-0.529l0.466-0.101
			c0.219-0.046,0.338-0.082,0.475-0.137V145.712z M34.06,144.114c0.054-0.357,0.311-0.53,0.776-0.53
			c0.429,0,0.685,0.155,0.685,0.411c0,0.173-0.1,0.256-0.393,0.301l-0.703,0.119c-1.233,0.201-1.754,0.63-1.754,1.452
			c0,0.832,0.648,1.389,1.617,1.389c0.529,0,0.831-0.11,1.27-0.466c0.045,0.164,0.045,0.192,0.101,0.347h1.323
			c-0.146-0.219-0.164-0.283-0.164-0.758v-2.028c0-0.658-0.118-1.005-0.438-1.288c-0.347-0.31-0.859-0.466-1.526-0.466
			c-1.242,0-1.872,0.494-1.954,1.517H34.06z M30.105,144.789h-1.38l0.74-2.384L30.105,144.789z M30.406,145.913l0.329,1.224h1.554
			l-1.938-6.092h-1.708l-2.128,6.092h1.489l0.383-1.224H30.406z"/>
	</g>
	<g>
		<defs>
			<rect id="SVGID_29_" x="10.347" y="401.043" width="127.559" height="84.25"/>
		</defs>
		<clipPath id="SVGID_30_">
			<use xlink:href="#SVGID_29_"  overflow="visible"/>
		</clipPath>
		<path clip-path="url(#SVGID_30_)" fill="#A2978A" d="M114.33,259.311c-0.11-0.932-0.806-1.443-1.938-1.443
			c-1.169,0-1.881,0.539-1.881,1.426c0,0.703,0.374,1.059,1.342,1.269l0.806,0.183c0.347,0.082,0.491,0.201,0.491,0.402
			c0,0.256-0.272,0.43-0.675,0.43c-0.521,0-0.795-0.201-0.868-0.613h-1.215c0.073,0.979,0.831,1.554,2.056,1.554
			s1.981-0.584,1.981-1.517c0-0.355-0.119-0.684-0.329-0.885c-0.189-0.201-0.465-0.32-1.004-0.43l-0.813-0.174
			c-0.411-0.092-0.539-0.174-0.539-0.338c0-0.219,0.245-0.365,0.62-0.365c0.43,0,0.693,0.173,0.749,0.502H114.33z M109.626,259.575
			c-0.082-1.05-0.868-1.707-2.021-1.707c-1.396,0-2.236,0.885-2.236,2.338c0,1.416,0.85,2.311,2.19,2.311
			c1.17,0,1.938-0.631,2.12-1.743l-1.261-0.065c-0.102,0.521-0.356,0.758-0.822,0.758c-0.603,0-0.923-0.457-0.923-1.297
			c0-0.803,0.32-1.252,0.914-1.252c0.429,0,0.729,0.248,0.804,0.658H109.626L109.626,259.575z M104.354,256.306h-1.297v1.069h1.297
			V256.306z M104.354,257.986h-1.297v4.413h1.297V257.986z M95.303,257.986v4.412H96.6v-2.431c0-0.666,0.211-0.977,0.658-0.977
			c0.448,0,0.658,0.311,0.658,0.977v2.431h1.297v-2.431c0-0.666,0.201-0.977,0.658-0.977c0.445,0,0.646,0.311,0.646,0.977v2.431
			h1.297v-2.933c0-0.566-0.1-0.922-0.347-1.178c-0.256-0.275-0.649-0.42-1.096-0.42c-0.566,0-0.896,0.163-1.37,0.711
			c-0.256-0.484-0.658-0.711-1.226-0.711c-0.528,0-0.804,0.154-1.215,0.647v-0.529H95.303z M91.941,258.899
			c0.667,0,1.041,0.467,1.041,1.314c0,0.795-0.383,1.271-1.041,1.271c-0.656,0-1.03-0.477-1.03-1.298
			C90.91,259.375,91.284,258.899,91.941,258.899 M91.941,257.868c-1.37,0-2.338,0.969-2.338,2.32c0,1.37,0.968,2.329,2.338,2.329
			c1.361,0,2.35-0.959,2.35-2.292C94.29,258.827,93.34,257.868,91.941,257.868 M84.58,257.986v4.412h1.297v-2.476
			c0-0.385,0.046-0.566,0.19-0.731c0.139-0.155,0.339-0.237,0.559-0.237c0.228,0,0.42,0.092,0.529,0.256
			c0.108,0.164,0.138,0.338,0.138,0.785v2.403h1.297v-2.86c0-1.041-0.585-1.68-1.544-1.68c-0.456,0-0.721,0.119-1.205,0.557v-0.428
			L84.58,257.986L84.58,257.986z M81.219,258.899c0.666,0,1.041,0.467,1.041,1.314c0,0.795-0.384,1.271-1.041,1.271
			c-0.658,0-1.032-0.477-1.032-1.298C80.187,259.375,80.561,258.899,81.219,258.899 M81.219,257.868c-1.37,0-2.339,0.969-2.339,2.32
			c0,1.37,0.969,2.329,2.339,2.329c1.361,0,2.347-0.959,2.347-2.292C83.565,258.827,82.616,257.868,81.219,257.868 M78.149,259.575
			c-0.083-1.05-0.866-1.707-2.019-1.707c-1.398,0-2.238,0.885-2.238,2.338c0,1.416,0.851,2.311,2.192,2.311
			c1.169,0,1.937-0.631,2.119-1.743l-1.262-0.065c-0.101,0.521-0.354,0.758-0.82,0.758c-0.604,0-0.924-0.457-0.924-1.297
			c0-0.803,0.32-1.252,0.914-1.252c0.431,0,0.73,0.248,0.806,0.658H78.149L78.149,259.575z M73.08,256.306h-4.539v6.093h4.594v-1.17
			h-3.224v-1.488h2.767v-1.078h-2.767v-1.188h3.169V256.306z M65.663,258.042h-0.841v-0.311c0-0.256,0.155-0.393,0.457-0.393h0.384
			v-1.032h-0.712c-0.959,0-1.426,0.466-1.426,1.415v0.32h-0.611v0.914h0.611v3.443h1.297v-3.443h0.841V258.042L65.663,258.042z
			 M60.046,258.899c0.667,0,1.041,0.467,1.041,1.314c0,0.795-0.383,1.271-1.041,1.271s-1.032-0.477-1.032-1.298
			C59.014,259.375,59.388,258.899,60.046,258.899 M60.046,257.868c-1.37,0-2.338,0.969-2.338,2.32c0,1.37,0.968,2.329,2.338,2.329
			c1.361,0,2.347-0.959,2.347-2.292C62.393,258.827,61.443,257.868,60.046,257.868 M55.141,256.306h-1.297v6.092h1.297V256.306z
			 M50.482,258.899c0.667,0,1.042,0.467,1.042,1.314c0,0.795-0.384,1.271-1.042,1.271c-0.656,0-1.031-0.477-1.031-1.298
			C49.45,259.375,49.825,258.899,50.482,258.899 M50.482,257.868c-1.37,0-2.338,0.969-2.338,2.32c0,1.37,0.968,2.329,2.338,2.329
			c1.361,0,2.349-0.959,2.349-2.292C52.83,258.827,51.88,257.868,50.482,257.868 M45.002,258.899c0.667,0,1.041,0.467,1.041,1.314
			c0,0.795-0.383,1.271-1.041,1.271s-1.032-0.477-1.032-1.298C43.97,259.375,44.344,258.899,45.002,258.899 M45.002,257.868
			c-1.37,0-2.338,0.969-2.338,2.32c0,1.37,0.968,2.329,2.338,2.329c1.36,0,2.347-0.959,2.347-2.292
			C47.349,258.827,46.399,257.868,45.002,257.868 M38.955,256.306h-1.297v6.093h1.297v-2.477c0-0.465,0.027-0.594,0.174-0.739
			c0.137-0.146,0.347-0.228,0.565-0.228c0.22,0,0.402,0.082,0.513,0.228c0.118,0.155,0.146,0.319,0.146,0.739v2.477h1.297v-2.713
			c0-0.667-0.109-1.042-0.393-1.352c-0.283-0.303-0.694-0.476-1.133-0.476c-0.456,0-0.804,0.155-1.169,0.502V256.306z
			 M36.663,259.575c-0.083-1.05-0.868-1.707-2.02-1.707c-1.397,0-2.238,0.885-2.238,2.338c0,1.416,0.851,2.311,2.192,2.311
			c1.169,0,1.938-0.631,2.119-1.743l-1.26-0.065c-0.102,0.521-0.356,0.758-0.822,0.758c-0.603,0-0.923-0.457-0.923-1.297
			c0-0.803,0.32-1.252,0.914-1.252c0.429,0,0.729,0.248,0.804,0.658H36.663L36.663,259.575z M31.575,258.213
			c-0.056-0.521-0.146-0.83-0.329-1.123c-0.374-0.611-1.087-0.922-2.102-0.922c-1.534,0-2.448,0.703-2.448,1.881
			c0,0.494,0.175,0.932,0.484,1.197c0.274,0.237,0.676,0.41,1.325,0.566l1.104,0.273c0.43,0.109,0.658,0.32,0.658,0.621
			c0,0.42-0.429,0.686-1.133,0.686c-0.831,0-1.224-0.311-1.251-1.005h-1.37c0.009,1.36,0.959,2.146,2.604,2.146
			c1.579,0,2.548-0.775,2.548-2.035c0-0.485-0.155-0.877-0.465-1.16c-0.293-0.275-0.667-0.439-1.344-0.604l-1.232-0.283
			c-0.375-0.092-0.559-0.265-0.559-0.521c0-0.384,0.394-0.621,1.042-0.621c0.686,0,1.097,0.301,1.097,0.804v0.1H31.575z"/>
	</g>
	<g>
		<defs>
			<rect id="SVGID_31_" x="10.347" y="401.043" width="127.559" height="84.25"/>
		</defs>
		<clipPath id="SVGID_32_">
			<use xlink:href="#SVGID_31_"  overflow="visible"/>
		</clipPath>
		<path clip-path="url(#SVGID_32_)" d="M91.622,248.844l-0.575,1.99c-0.102,0.394-0.174,0.695-0.229,0.988l-0.055-0.175
			c-0.101-0.364-0.101-0.374-0.229-0.785l-0.648-2.019h-1.389l1.453,3.709c0.153,0.383,0.163,0.41,0.163,0.566
			c0,0.383-0.21,0.557-0.667,0.557h-0.384v0.978h0.759c0.985,0,1.195-0.183,1.606-1.36l1.535-4.449H91.622z M87.886,248.899h-0.794
			V247.5h-1.297v1.397h-0.621v0.913h0.621v2.01c0,0.686,0.054,0.922,0.255,1.143c0.192,0.209,0.475,0.291,1.042,0.291h0.794v-0.977
			h-0.465c-0.302,0-0.329-0.055-0.329-0.749v-1.718h0.794V248.899z M84.278,247.165H82.98v1.068h1.298V247.165z M84.278,248.844
			H82.98v4.412h1.298V248.844z M82.05,250.168c-0.11-0.932-0.804-1.443-1.938-1.443c-1.169,0-1.882,0.539-1.882,1.425
			c0,0.704,0.374,1.06,1.344,1.271l0.804,0.183c0.347,0.082,0.493,0.201,0.493,0.401c0,0.256-0.274,0.43-0.676,0.43
			c-0.521,0-0.795-0.201-0.867-0.611h-1.216c0.072,0.977,0.831,1.553,2.056,1.553c1.224,0,1.98-0.586,1.98-1.518
			c0-0.355-0.116-0.686-0.328-0.886c-0.19-0.201-0.466-0.319-1.005-0.429l-0.813-0.174c-0.411-0.092-0.539-0.174-0.539-0.338
			c0-0.22,0.246-0.365,0.621-0.365c0.429,0,0.693,0.174,0.749,0.502H82.05z M74.77,248.844v4.412h1.296v-1.242
			c0-0.859,0.047-1.27,0.176-1.563c0.146-0.328,0.511-0.529,0.959-0.529c0.091,0,0.173,0.009,0.327,0.027v-1.225
			c-0.939-0.01-1.27,0.191-1.524,0.904l0.037-0.785H74.77z M70.714,250.516c0.101-0.512,0.43-0.805,0.932-0.805
			s0.805,0.293,0.859,0.805H70.714z M73.838,251.429c0-0.585-0.064-0.978-0.201-1.343c-0.319-0.877-1.032-1.361-1.982-1.361
			c-1.323,0-2.256,0.96-2.256,2.33c0,1.388,0.904,2.32,2.266,2.32c1.051,0,1.873-0.549,2.119-1.408h-1.315
			c-0.183,0.275-0.42,0.394-0.767,0.394c-0.558,0-0.914-0.329-0.996-0.932H73.838z M67.417,253.256l1.498-4.412h-1.389l-0.447,1.689
			c-0.064,0.266-0.175,0.768-0.274,1.271c-0.146-0.53-0.256-0.96-0.347-1.271l-0.493-1.689h-1.361l1.58,4.412H67.417z
			 M63.782,247.165h-1.298v1.068h1.298V247.165z M63.782,248.844h-1.298v4.412h1.298V248.844z M57.242,248.844v4.412h1.297v-2.475
			c0-0.385,0.045-0.568,0.19-0.732c0.138-0.154,0.338-0.237,0.559-0.237c0.228,0,0.42,0.092,0.528,0.256
			c0.11,0.165,0.138,0.339,0.138,0.786v2.402h1.297v-2.859c0-1.041-0.584-1.682-1.543-1.682c-0.457,0-0.723,0.119-1.206,0.558
			v-0.429H57.242z M54.629,247.165v4.027c0,0.411-0.064,0.594-0.246,0.768c-0.201,0.172-0.494,0.273-0.831,0.273
			c-0.329,0-0.622-0.102-0.823-0.273c-0.182-0.174-0.246-0.356-0.246-0.768v-4.027h-1.37v4.119c0,0.766,0.201,1.25,0.657,1.588
			c0.466,0.338,1.087,0.521,1.782,0.521c0.703,0,1.324-0.184,1.79-0.521c0.457-0.338,0.657-0.822,0.657-1.588v-4.119H54.629z
			 M45.669,249.758c0.667,0,1.041,0.465,1.041,1.314c0,0.795-0.384,1.27-1.041,1.27c-0.658,0-1.032-0.475-1.032-1.297
			C44.637,250.233,45.011,249.758,45.669,249.758 M45.669,248.725c-1.37,0-2.339,0.969-2.339,2.32c0,1.371,0.969,2.33,2.339,2.33
			c1.36,0,2.347-0.959,2.347-2.293C48.016,249.685,47.066,248.725,45.669,248.725 M42.755,248.899H41.96V247.5h-1.297v1.397h-0.621
			v0.913h0.621v2.01c0,0.686,0.055,0.922,0.256,1.143c0.191,0.209,0.475,0.291,1.041,0.291h0.795v-0.977h-0.466
			c-0.302,0-0.329-0.055-0.329-0.749v-1.718h0.795V248.899z M39.238,247.165h-1.297v6.092h1.297V247.165z M35.576,251.831
			c-0.212,0.375-0.521,0.558-0.95,0.558c-0.402,0-0.658-0.173-0.658-0.466c0-0.264,0.201-0.42,0.667-0.529l0.466-0.102
			c0.219-0.045,0.338-0.082,0.476-0.137V251.831z M34.078,250.233c0.054-0.357,0.31-0.529,0.775-0.529
			c0.43,0,0.686,0.154,0.686,0.41c0,0.174-0.101,0.256-0.394,0.301l-0.703,0.119c-1.232,0.201-1.754,0.631-1.754,1.452
			c0,0.832,0.649,1.39,1.617,1.39c0.53,0,0.831-0.11,1.271-0.467c0.045,0.164,0.045,0.192,0.1,0.348H37
			c-0.146-0.219-0.164-0.283-0.164-0.758v-2.029c0-0.657-0.119-1.004-0.438-1.287c-0.347-0.311-0.858-0.467-1.525-0.467
			c-1.242,0-1.872,0.494-1.954,1.518H34.078z M30.123,250.909h-1.38l0.739-2.385L30.123,250.909z M30.424,252.032l0.329,1.225h1.553
			l-1.937-6.092h-1.708l-2.128,6.092h1.488l0.383-1.225H30.424z"/>
	</g>
	<g>
		<defs>
			<rect id="SVGID_33_" x="10.347" y="401.043" width="127.559" height="84.25"/>
		</defs>
		<clipPath id="SVGID_34_">
			<use xlink:href="#SVGID_33_"  overflow="visible"/>
		</clipPath>
		<path clip-path="url(#SVGID_34_)" fill="#A2978A" d="M125.382,365.094v4.412h1.297v-2.477c0-0.384,0.045-0.564,0.192-0.73
			c0.137-0.155,0.338-0.237,0.557-0.237c0.229,0,0.42,0.091,0.53,0.256c0.107,0.164,0.137,0.338,0.137,0.785v2.403h1.297v-2.86
			c0-1.041-0.585-1.679-1.544-1.679c-0.457,0-0.722,0.119-1.206,0.556v-0.429H125.382L125.382,365.094z M121.92,366.025
			c0.575,0,0.977,0.448,0.977,1.078c0,0.676-0.392,1.114-0.984,1.114c-0.576,0-0.979-0.447-0.979-1.096
			S121.335,366.025,121.92,366.025 M122.916,365.122l0.036,0.539c-0.329-0.476-0.723-0.686-1.288-0.686
			c-1.123,0-1.964,0.932-1.964,2.165c0,1.243,0.832,2.128,1.99,2.128c0.493,0,0.805-0.119,1.188-0.475v0.293
			c0,0.438-0.046,0.593-0.219,0.748c-0.146,0.129-0.366,0.191-0.642,0.191c-0.429,0-0.685-0.137-0.774-0.411H119.9
			c0.094,0.904,0.832,1.407,2.065,1.407c0.767,0,1.37-0.201,1.771-0.594c0.312-0.301,0.411-0.621,0.411-1.342v-3.965H122.916
			L122.916,365.122z M118.741,363.413h-1.299v1.069h1.299V363.413z M118.741,365.094h-1.299v4.412h1.299V365.094z M116.33,366.418
			c-0.11-0.933-0.806-1.443-1.938-1.443c-1.17,0-1.882,0.539-1.882,1.425c0,0.703,0.374,1.06,1.343,1.271l0.805,0.182
			c0.348,0.082,0.492,0.201,0.492,0.402c0,0.256-0.272,0.429-0.676,0.429c-0.521,0-0.795-0.201-0.868-0.612h-1.215
			c0.073,0.979,0.831,1.553,2.056,1.553s1.981-0.584,1.981-1.516c0-0.355-0.118-0.684-0.328-0.886
			c-0.19-0.201-0.466-0.32-1.005-0.429l-0.813-0.174c-0.411-0.092-0.539-0.174-0.539-0.338c0-0.22,0.247-0.365,0.62-0.365
			c0.43,0,0.693,0.174,0.749,0.502H116.33L116.33,366.418z M108.52,366.765c0.103-0.511,0.432-0.804,0.934-0.804
			s0.804,0.293,0.857,0.804H108.52z M111.644,367.679c0-0.585-0.063-0.978-0.201-1.343c-0.317-0.877-1.03-1.361-1.98-1.361
			c-1.324,0-2.256,0.959-2.256,2.329c0,1.389,0.902,2.319,2.265,2.319c1.051,0,1.873-0.547,2.119-1.406h-1.315
			c-0.183,0.275-0.42,0.393-0.767,0.393c-0.557,0-0.914-0.329-0.996-0.931H111.644z M102.583,368.336v-3.754h1.014
			c0.557,0,0.932,0.191,1.169,0.611c0.201,0.348,0.293,0.749,0.293,1.262c0,0.528-0.101,0.949-0.302,1.287
			c-0.256,0.42-0.63,0.594-1.251,0.594H102.583L102.583,368.336z M101.213,369.506h2.109c1.134,0,1.81-0.238,2.339-0.805
			c0.503-0.548,0.795-1.389,0.795-2.274c0-0.849-0.267-1.626-0.749-2.173c-0.548-0.621-1.196-0.842-2.432-0.842h-2.063V369.506
			L101.213,369.506z M95.705,366.016c0.565,0,0.939,0.512,0.939,1.297c0,0.749-0.384,1.262-0.939,1.262
			c-0.559,0-0.933-0.513-0.933-1.279C94.773,366.528,95.147,366.016,95.705,366.016 M97.896,363.413H96.6v2.01
			c-0.31-0.319-0.657-0.455-1.132-0.455c-1.188,0-1.973,0.93-1.973,2.337c0,1.389,0.774,2.319,1.943,2.319
			c0.539,0,0.888-0.162,1.216-0.594v0.477h1.241V363.413z M88.617,365.094v4.412h1.297v-2.477c0-0.384,0.046-0.564,0.19-0.73
			c0.139-0.155,0.338-0.237,0.559-0.237c0.229,0,0.42,0.091,0.528,0.256c0.11,0.164,0.139,0.338,0.139,0.785v2.403h1.297v-2.86
			c0-1.041-0.584-1.679-1.544-1.679c-0.456,0-0.723,0.119-1.205,0.556v-0.429H88.617L88.617,365.094z M86.114,368.081
			c-0.211,0.375-0.521,0.558-0.949,0.558c-0.401,0-0.657-0.173-0.657-0.466c0-0.266,0.201-0.42,0.667-0.53l0.465-0.099
			c0.22-0.047,0.338-0.084,0.476-0.139L86.114,368.081L86.114,368.081z M84.616,366.482c0.055-0.354,0.311-0.53,0.775-0.53
			c0.429,0,0.687,0.156,0.687,0.411c0,0.175-0.103,0.257-0.395,0.302l-0.703,0.119c-1.231,0.2-1.754,0.631-1.754,1.452
			c0,0.831,0.649,1.388,1.617,1.388c0.53,0,0.831-0.108,1.27-0.465c0.047,0.164,0.047,0.191,0.102,0.348h1.324
			c-0.146-0.221-0.164-0.284-0.164-0.76v-2.026c0-0.658-0.119-1.005-0.438-1.288c-0.348-0.311-0.857-0.465-1.524-0.465
			c-1.242,0-1.872,0.492-1.955,1.515H84.616L84.616,366.482z M80.597,365.148h-0.794v-1.396h-1.297v1.396h-0.621v0.914h0.621v2.009
			c0,0.686,0.055,0.924,0.255,1.143c0.192,0.211,0.475,0.293,1.042,0.293h0.794v-0.979h-0.465c-0.302,0-0.329-0.055-0.329-0.749
			v-1.717h0.794V365.148z M74.487,365.094v4.412h1.298v-1.243c0-0.858,0.046-1.269,0.173-1.562c0.146-0.33,0.512-0.529,0.959-0.529
			c0.092,0,0.174,0.009,0.329,0.027v-1.225c-0.941-0.008-1.271,0.193-1.525,0.904l0.036-0.785H74.487L74.487,365.094z
			 M71.591,367.159h-1.379l0.74-2.385L71.591,367.159z M71.893,368.282l0.329,1.225h1.552l-1.936-6.094H70.13l-2.128,6.094h1.489
			l0.383-1.225H71.893z M65.819,365.148h-0.841v-0.31c0-0.256,0.156-0.394,0.457-0.394h0.384v-1.032h-0.713
			c-0.959,0-1.425,0.467-1.425,1.416v0.319h-0.612v0.914h0.612v3.444h1.297v-3.444h0.841V365.148z M60.201,366.008
			c0.667,0,1.041,0.465,1.041,1.313c0,0.796-0.384,1.271-1.041,1.271c-0.658,0-1.032-0.475-1.032-1.297
			C59.169,366.482,59.543,366.008,60.201,366.008 M60.201,364.975c-1.37,0-2.339,0.968-2.339,2.32c0,1.369,0.969,2.328,2.339,2.328
			c1.36,0,2.348-0.959,2.348-2.291C62.549,365.934,61.599,364.975,60.201,364.975 M55.159,363.413h-1.298v6.094h1.298V363.413z
			 M50.501,366.008c0.666,0,1.041,0.465,1.041,1.313c0,0.796-0.384,1.271-1.041,1.271c-0.658,0-1.032-0.475-1.032-1.297
			C49.469,366.482,49.843,366.008,50.501,366.008 M50.501,364.975c-1.37,0-2.339,0.968-2.339,2.32c0,1.369,0.969,2.328,2.339,2.328
			c1.36,0,2.347-0.959,2.347-2.291C52.848,365.934,51.898,364.975,50.501,364.975 M45.02,366.008c0.667,0,1.042,0.465,1.042,1.313
			c0,0.796-0.384,1.271-1.042,1.271c-0.657,0-1.032-0.475-1.032-1.297C43.988,366.482,44.363,366.008,45.02,366.008 M45.02,364.975
			c-1.37,0-2.338,0.968-2.338,2.32c0,1.369,0.968,2.328,2.338,2.328c1.361,0,2.349-0.959,2.349-2.291
			C47.368,365.934,46.418,364.975,45.02,364.975 M38.973,363.413h-1.297v6.094h1.297v-2.477c0-0.466,0.028-0.594,0.174-0.74
			c0.138-0.146,0.348-0.228,0.566-0.228c0.22,0,0.401,0.082,0.512,0.228c0.119,0.156,0.146,0.32,0.146,0.74v2.477h1.297v-2.713
			c0-0.666-0.11-1.041-0.394-1.353c-0.282-0.302-0.693-0.474-1.132-0.474c-0.457,0-0.804,0.154-1.17,0.5V363.413z M36.681,366.683
			c-0.082-1.05-0.868-1.708-2.019-1.708c-1.397,0-2.238,0.886-2.238,2.338c0,1.416,0.85,2.311,2.193,2.311
			c1.169,0,1.936-0.629,2.118-1.742l-1.261-0.065c-0.1,0.521-0.355,0.759-0.822,0.759c-0.603,0-0.922-0.457-0.922-1.298
			c0-0.804,0.319-1.252,0.913-1.252c0.429,0,0.731,0.247,0.804,0.658H36.681L36.681,366.683z M31.575,365.322
			c-0.056-0.521-0.146-0.831-0.329-1.122c-0.374-0.611-1.087-0.924-2.102-0.924c-1.534,0-2.448,0.703-2.448,1.883
			c0,0.492,0.175,0.932,0.484,1.195c0.274,0.238,0.676,0.411,1.325,0.566l1.104,0.274c0.43,0.109,0.658,0.319,0.658,0.621
			c0,0.42-0.429,0.687-1.133,0.687c-0.831,0-1.224-0.313-1.251-1.006h-1.37c0.009,1.36,0.959,2.146,2.604,2.146
			c1.579,0,2.548-0.776,2.548-2.036c0-0.484-0.155-0.877-0.465-1.16c-0.293-0.273-0.667-0.438-1.344-0.604l-1.232-0.283
			c-0.375-0.092-0.559-0.264-0.559-0.52c0-0.385,0.394-0.621,1.042-0.621c0.686,0,1.097,0.301,1.097,0.804v0.1H31.575z"/>
	</g>
	<g>
		<defs>
			<rect id="SVGID_35_" x="10.347" y="401.043" width="127.559" height="84.25"/>
		</defs>
		<clipPath id="SVGID_36_">
			<use xlink:href="#SVGID_35_"  overflow="visible"/>
		</clipPath>
		<path clip-path="url(#SVGID_36_)" d="M91.622,355.952l-0.575,1.99c-0.102,0.393-0.174,0.695-0.229,0.987l-0.055-0.175
			c-0.101-0.364-0.101-0.373-0.229-0.785l-0.648-2.018h-1.389l1.453,3.709c0.153,0.383,0.163,0.411,0.163,0.565
			c0,0.384-0.21,0.558-0.667,0.558h-0.384v0.977h0.759c0.985,0,1.195-0.182,1.606-1.36l1.535-4.448H91.622z M87.886,356.006h-0.794
			v-1.398h-1.297v1.398h-0.621v0.912h0.621v2.011c0,0.687,0.054,0.922,0.255,1.144c0.192,0.209,0.475,0.291,1.042,0.291h0.794
			v-0.978h-0.465c-0.302,0-0.329-0.056-0.329-0.749v-1.719h0.794V356.006z M84.278,354.27H82.98v1.068h1.298V354.27z
			 M84.278,355.952H82.98v4.411h1.298V355.952z M82.05,357.276c-0.11-0.932-0.804-1.443-1.938-1.443
			c-1.169,0-1.882,0.539-1.882,1.424c0,0.705,0.374,1.061,1.344,1.271l0.804,0.183c0.347,0.082,0.493,0.201,0.493,0.403
			c0,0.255-0.274,0.429-0.676,0.429c-0.521,0-0.795-0.201-0.867-0.612h-1.216c0.072,0.978,0.831,1.553,2.056,1.553
			c1.224,0,1.98-0.585,1.98-1.517c0-0.356-0.116-0.684-0.328-0.887c-0.19-0.201-0.466-0.318-1.005-0.429l-0.813-0.173
			c-0.411-0.092-0.539-0.174-0.539-0.338c0-0.221,0.246-0.366,0.621-0.366c0.429,0,0.693,0.175,0.749,0.503H82.05L82.05,357.276z
			 M74.77,355.952v4.412h1.296v-1.242c0-0.859,0.047-1.271,0.176-1.563c0.146-0.329,0.511-0.53,0.959-0.53
			c0.091,0,0.173,0.009,0.327,0.027v-1.224c-0.939-0.008-1.27,0.191-1.524,0.905l0.037-0.786H74.77z M70.714,357.624
			c0.101-0.513,0.43-0.805,0.932-0.805s0.805,0.292,0.859,0.805H70.714z M73.838,358.536c0-0.584-0.064-0.977-0.201-1.343
			c-0.319-0.876-1.032-1.36-1.982-1.36c-1.323,0-2.256,0.959-2.256,2.33c0,1.387,0.904,2.319,2.266,2.319
			c1.051,0,1.873-0.548,2.119-1.405h-1.315c-0.183,0.272-0.42,0.391-0.767,0.391c-0.558,0-0.914-0.328-0.996-0.932H73.838z
			 M67.417,360.364l1.498-4.412h-1.389l-0.447,1.689c-0.064,0.266-0.175,0.768-0.274,1.27c-0.146-0.529-0.256-0.959-0.347-1.27
			l-0.493-1.689h-1.361l1.58,4.412H67.417z M63.782,354.27h-1.298v1.068h1.298V354.27z M63.782,355.952h-1.298v4.411h1.298V355.952z
			 M57.242,355.952v4.412h1.297v-2.476c0-0.384,0.045-0.566,0.19-0.729c0.138-0.156,0.338-0.24,0.559-0.24
			c0.228,0,0.42,0.092,0.528,0.256c0.11,0.166,0.138,0.339,0.138,0.787v2.402h1.297v-2.859c0-1.041-0.584-1.68-1.543-1.68
			c-0.457,0-0.723,0.117-1.206,0.555v-0.428H57.242L57.242,355.952z M54.629,354.27v4.029c0,0.41-0.064,0.593-0.246,0.767
			c-0.201,0.175-0.494,0.274-0.831,0.274c-0.329,0-0.622-0.101-0.823-0.274c-0.182-0.174-0.246-0.356-0.246-0.767v-4.029h-1.37v4.12
			c0,0.769,0.201,1.251,0.657,1.589c0.466,0.338,1.087,0.521,1.782,0.521c0.703,0,1.324-0.184,1.79-0.521
			c0.457-0.338,0.657-0.82,0.657-1.589v-4.12H54.629z M45.669,356.866c0.667,0,1.041,0.465,1.041,1.314
			c0,0.795-0.384,1.271-1.041,1.271c-0.658,0-1.032-0.477-1.032-1.299C44.637,357.34,45.011,356.866,45.669,356.866 M45.669,355.833
			c-1.37,0-2.339,0.969-2.339,2.32c0,1.37,0.969,2.329,2.339,2.329c1.36,0,2.347-0.959,2.347-2.293
			C48.016,356.792,47.066,355.833,45.669,355.833 M42.755,356.006H41.96v-1.398h-1.297v1.398h-0.621v0.912h0.621v2.011
			c0,0.687,0.055,0.922,0.256,1.144c0.191,0.209,0.475,0.291,1.041,0.291h0.795v-0.978h-0.466c-0.302,0-0.329-0.056-0.329-0.749
			v-1.719h0.795V356.006z M39.238,354.27h-1.297v6.093h1.297V354.27z M35.576,358.938c-0.212,0.375-0.521,0.557-0.95,0.557
			c-0.402,0-0.658-0.172-0.658-0.466c0-0.264,0.201-0.42,0.667-0.528l0.466-0.102c0.219-0.046,0.338-0.082,0.476-0.137V358.938z
			 M34.078,357.34c0.054-0.357,0.31-0.53,0.775-0.53c0.43,0,0.686,0.155,0.686,0.411c0,0.173-0.101,0.256-0.394,0.301l-0.703,0.119
			c-1.232,0.201-1.754,0.63-1.754,1.451c0,0.832,0.649,1.39,1.617,1.39c0.53,0,0.831-0.11,1.271-0.466
			c0.045,0.164,0.045,0.191,0.1,0.348H37c-0.146-0.22-0.164-0.283-0.164-0.759v-2.028c0-0.658-0.119-1.004-0.438-1.287
			c-0.347-0.311-0.858-0.465-1.525-0.465c-1.242,0-1.872,0.492-1.954,1.516H34.078L34.078,357.34z M30.123,358.015h-1.38
			l0.739-2.384L30.123,358.015z M30.424,359.139l0.329,1.225h1.553l-1.937-6.094h-1.708l-2.128,6.094h1.488l0.383-1.225H30.424z"/>
	</g>
	<g>
		<defs>
			<rect id="SVGID_37_" x="10.347" y="401.043" width="127.559" height="84.25"/>
		</defs>
		<clipPath id="SVGID_38_">
			<use xlink:href="#SVGID_37_"  overflow="visible"/>
		</clipPath>
		<path clip-path="url(#SVGID_38_)" fill="#FFD200" d="M90.077,317.89c0-7.401-5.894-11.54-14.336-11.54
			c-8.165,0-14.472,4.23-14.472,11.717v1.203h8.639c0-3.579,2.426-5.175,5.725-5.175c3.038,0,5.186,1.62,5.186,4.097
			c0,1.977-1.127,3.313-3.633,4.725c-3.631,2.045-5.85,4.439-5.85,10.162v0.851h8.681v-0.349c0-3.066,0.866-4.242,4.066-6.354
			C86.982,325.314,90.077,322.727,90.077,317.89"/>
	</g>
	<g>
		<defs>
			<rect id="SVGID_39_" x="10.347" y="401.043" width="127.559" height="84.25"/>
		</defs>
		<clipPath id="SVGID_40_">
			<use xlink:href="#SVGID_39_"  overflow="visible"/>
		</clipPath>
		<path clip-path="url(#SVGID_40_)" fill="#A2978A" d="M29.593,482.352c-0.21,0.375-0.521,0.559-0.95,0.559
			c-0.401,0-0.658-0.174-0.658-0.467c0-0.266,0.201-0.42,0.667-0.529l0.467-0.102c0.219-0.047,0.338-0.082,0.475-0.137V482.352z
			 M31.018,483.778c-0.146-0.221-0.164-0.283-0.164-0.76v-2.025c0-0.658-0.119-1.006-0.438-1.289
			c-0.348-0.311-0.858-0.465-1.525-0.465c-1.243,0-1.873,0.492-1.955,1.516h1.16c0.055-0.355,0.311-0.529,0.776-0.529
			c0.43,0,0.686,0.154,0.686,0.41c0,0.174-0.101,0.256-0.393,0.303l-0.704,0.117c-1.233,0.201-1.753,0.631-1.753,1.451
			c0,0.834,0.647,1.391,1.615,1.391c0.53,0,0.832-0.109,1.271-0.467c0.046,0.164,0.046,0.193,0.101,0.35h1.324V483.778z"/>
	</g>
	<g>
		<defs>
			<rect id="SVGID_41_" x="10.347" y="401.043" width="127.559" height="84.25"/>
		</defs>
		<clipPath id="SVGID_42_">
			<use xlink:href="#SVGID_41_"  overflow="visible"/>
		</clipPath>
		<path clip-path="url(#SVGID_42_)" fill="#A2978A" d="M32.095,479.366v4.412h1.297v-2.477c0-0.383,0.046-0.564,0.192-0.729
			c0.137-0.156,0.338-0.238,0.557-0.238c0.229,0,0.42,0.092,0.53,0.256c0.108,0.164,0.137,0.338,0.137,0.785v2.402h1.297v-2.859
			c0-1.041-0.585-1.68-1.544-1.68c-0.456,0-0.721,0.119-1.205,0.557v-0.43H32.095L32.095,479.366z"/>
	</g>
	<g>
		<defs>
			<rect id="SVGID_43_" x="10.347" y="401.043" width="127.559" height="84.25"/>
		</defs>
		<clipPath id="SVGID_44_">
			<use xlink:href="#SVGID_43_"  overflow="visible"/>
		</clipPath>
		<path clip-path="url(#SVGID_44_)" fill="#A2978A" d="M40.216,481.584c0,0.75-0.384,1.26-0.941,1.26
			c-0.557,0-0.932-0.51-0.932-1.275c0-0.771,0.375-1.279,0.932-1.279C39.841,480.29,40.216,480.797,40.216,481.584 M41.467,483.778
			v-6.094H40.17v2.012c-0.312-0.32-0.658-0.457-1.133-0.457c-1.188,0-1.974,0.932-1.974,2.338c0,1.389,0.777,2.32,1.946,2.32
			c0.539,0,0.886-0.166,1.215-0.596v0.477H41.467L41.467,483.778z"/>
	</g>
</g>
<polygon fill="#A2978A" points="47.368,478.854 49.213,478.854 49.213,477.684 44.153,477.684 44.153,478.854 45.998,478.854 
	45.998,483.778 47.368,483.778 "/>
<g>
	<g>
		<defs>
			<rect id="SVGID_45_" x="10.347" y="401.043" width="127.559" height="84.25"/>
		</defs>
		<clipPath id="SVGID_46_">
			<use xlink:href="#SVGID_45_"  overflow="visible"/>
		</clipPath>
		<path clip-path="url(#SVGID_46_)" fill="#A2978A" d="M52.199,481.038h-1.79c0.101-0.512,0.429-0.803,0.932-0.803
			C51.843,480.235,52.146,480.526,52.199,481.038 M53.533,481.952c0-0.586-0.064-0.979-0.201-1.344
			c-0.32-0.877-1.032-1.361-1.982-1.361c-1.325,0-2.256,0.959-2.256,2.33c0,1.389,0.904,2.32,2.265,2.32
			c1.051,0,1.873-0.549,2.119-1.406h-1.314c-0.184,0.273-0.42,0.393-0.768,0.393c-0.558,0-0.914-0.328-0.996-0.932H53.533
			L53.533,481.952z"/>
	</g>
	<g>
		<defs>
			<rect id="SVGID_47_" x="10.347" y="401.043" width="127.559" height="84.25"/>
		</defs>
		<clipPath id="SVGID_48_">
			<use xlink:href="#SVGID_47_"  overflow="visible"/>
		</clipPath>
		<path clip-path="url(#SVGID_48_)" fill="#A2978A" d="M58.639,480.956c-0.082-1.051-0.868-1.709-2.019-1.709
			c-1.397,0-2.238,0.887-2.238,2.338c0,1.416,0.85,2.313,2.193,2.313c1.169,0,1.936-0.629,2.118-1.744l-1.261-0.063
			c-0.1,0.52-0.355,0.758-0.822,0.758c-0.603,0-0.922-0.457-0.922-1.297c0-0.805,0.319-1.252,0.913-1.252
			c0.429,0,0.731,0.246,0.804,0.656H58.639L58.639,480.956z"/>
	</g>
	<g>
		<defs>
			<rect id="SVGID_49_" x="10.347" y="401.043" width="127.559" height="84.25"/>
		</defs>
		<clipPath id="SVGID_50_">
			<use xlink:href="#SVGID_49_"  overflow="visible"/>
		</clipPath>
		<path clip-path="url(#SVGID_50_)" fill="#A2978A" d="M60.932,477.684h-1.297v6.094h1.297v-2.477c0-0.467,0.027-0.594,0.174-0.738
			c0.138-0.146,0.348-0.23,0.566-0.23s0.402,0.082,0.511,0.23c0.119,0.154,0.147,0.318,0.147,0.738v2.477h1.297v-2.713
			c0-0.666-0.11-1.041-0.394-1.354c-0.282-0.301-0.693-0.475-1.133-0.475c-0.457,0-0.804,0.154-1.169,0.502V477.684z"/>
	</g>
	<g>
		<defs>
			<rect id="SVGID_51_" x="10.347" y="401.043" width="127.559" height="84.25"/>
		</defs>
		<clipPath id="SVGID_52_">
			<use xlink:href="#SVGID_51_"  overflow="visible"/>
		</clipPath>
		<path clip-path="url(#SVGID_52_)" fill="#A2978A" d="M64.905,479.366v4.412h1.298v-2.477c0-0.383,0.046-0.564,0.191-0.729
			c0.137-0.156,0.338-0.238,0.558-0.238c0.228,0,0.42,0.092,0.529,0.256s0.138,0.338,0.138,0.785v2.402h1.297v-2.859
			c0-1.041-0.585-1.68-1.544-1.68c-0.456,0-0.722,0.119-1.205,0.557v-0.43H64.905L64.905,479.366z"/>
	</g>
	<g>
		<defs>
			<rect id="SVGID_53_" x="10.347" y="401.043" width="127.559" height="84.25"/>
		</defs>
		<clipPath id="SVGID_54_">
			<use xlink:href="#SVGID_53_"  overflow="visible"/>
		</clipPath>
		<path clip-path="url(#SVGID_54_)" fill="#A2978A" d="M73.263,481.594c0,0.795-0.384,1.271-1.041,1.271
			c-0.658,0-1.033-0.477-1.033-1.299c0-0.813,0.375-1.287,1.033-1.287C72.888,480.28,73.263,480.745,73.263,481.594 M74.569,481.602
			c0-1.396-0.949-2.355-2.347-2.355c-1.371,0-2.339,0.969-2.339,2.32c0,1.371,0.968,2.33,2.339,2.33
			C73.583,483.897,74.569,482.938,74.569,481.602"/>
	</g>
</g>
<rect x="75.538" y="477.684" fill="#A2978A" width="1.297" height="6.094"/>
<g>
	<g>
		<defs>
			<rect id="SVGID_55_" x="10.347" y="401.043" width="127.559" height="84.25"/>
		</defs>
		<clipPath id="SVGID_56_">
			<use xlink:href="#SVGID_55_"  overflow="visible"/>
		</clipPath>
		<path clip-path="url(#SVGID_56_)" fill="#A2978A" d="M81.183,481.594c0,0.795-0.384,1.271-1.041,1.271
			c-0.658,0-1.033-0.477-1.033-1.299c0-0.813,0.375-1.287,1.033-1.287C80.808,480.28,81.183,480.745,81.183,481.594 M82.488,481.602
			c0-1.396-0.949-2.355-2.347-2.355c-1.371,0-2.339,0.969-2.339,2.32c0,1.371,0.968,2.33,2.339,2.33
			C81.502,483.897,82.488,482.938,82.488,481.602"/>
	</g>
	<g>
		<defs>
			<rect id="SVGID_57_" x="10.347" y="401.043" width="127.559" height="84.25"/>
		</defs>
		<clipPath id="SVGID_58_">
			<use xlink:href="#SVGID_57_"  overflow="visible"/>
		</clipPath>
		<path clip-path="url(#SVGID_58_)" fill="#A2978A" d="M86.471,481.375c0,0.676-0.393,1.113-0.987,1.113
			c-0.573,0-0.977-0.447-0.977-1.098c0-0.646,0.402-1.096,0.986-1.096C86.068,480.297,86.471,480.747,86.471,481.375
			 M87.722,483.358v-3.965H86.49l0.035,0.539c-0.328-0.475-0.721-0.686-1.287-0.686c-1.123,0-1.964,0.932-1.964,2.164
			c0,1.242,0.831,2.129,1.991,2.129c0.493,0,0.804-0.119,1.188-0.475v0.291c0,0.438-0.045,0.596-0.221,0.75
			c-0.146,0.127-0.363,0.191-0.639,0.191c-0.43,0-0.685-0.137-0.777-0.412h-1.342c0.091,0.904,0.831,1.406,2.064,1.406
			c0.767,0,1.37-0.201,1.771-0.592C87.622,484.399,87.722,484.081,87.722,483.358"/>
	</g>
	<g>
		<defs>
			<rect id="SVGID_59_" x="10.347" y="401.043" width="127.559" height="84.25"/>
		</defs>
		<clipPath id="SVGID_60_">
			<use xlink:href="#SVGID_59_"  overflow="visible"/>
		</clipPath>
		<path clip-path="url(#SVGID_60_)" fill="#A2978A" d="M91.577,479.366l-0.575,1.992c-0.103,0.393-0.174,0.691-0.229,0.984
			l-0.055-0.174c-0.1-0.365-0.1-0.373-0.229-0.785l-0.647-2.018h-1.388l1.45,3.707c0.156,0.385,0.165,0.412,0.165,0.566
			c0,0.385-0.21,0.559-0.667,0.559h-0.384v0.977h0.759c0.986,0,1.196-0.182,1.607-1.359l1.535-4.449H91.577z"/>
	</g>
	<g>
		<defs>
			<rect id="SVGID_61_" x="10.347" y="401.043" width="127.559" height="84.25"/>
		</defs>
		<clipPath id="SVGID_62_">
			<use xlink:href="#SVGID_61_"  overflow="visible"/>
		</clipPath>
		<path clip-path="url(#SVGID_62_)" fill="#A2978A" d="M97.979,471.895c0.102-0.512,0.431-0.805,0.933-0.805
			c0.503,0,0.804,0.293,0.857,0.805H97.979z M101.104,472.809c0-0.586-0.063-0.979-0.201-1.344c-0.318-0.877-1.031-1.359-1.98-1.359
			c-1.325,0-2.257,0.959-2.257,2.328c0,1.389,0.903,2.318,2.266,2.318c1.05,0,1.872-0.547,2.119-1.404h-1.316
			c-0.182,0.273-0.42,0.393-0.767,0.393c-0.557,0-0.913-0.33-0.995-0.932H101.104L101.104,472.809z M95.888,471.813
			c-0.082-1.051-0.868-1.707-2.019-1.707c-1.397,0-2.238,0.885-2.238,2.338c0,1.416,0.85,2.311,2.193,2.311
			c1.169,0,1.936-0.631,2.117-1.744l-1.261-0.063c-0.1,0.52-0.354,0.758-0.822,0.758c-0.603,0-0.922-0.457-0.922-1.297
			c0-0.805,0.319-1.252,0.913-1.252c0.43,0,0.731,0.246,0.805,0.658h1.233V471.813z M86.699,470.223v4.41h1.297v-2.475
			c0-0.383,0.046-0.566,0.19-0.73c0.139-0.154,0.338-0.236,0.559-0.236c0.228,0,0.42,0.092,0.528,0.256
			c0.11,0.164,0.139,0.338,0.139,0.785v2.4h1.297v-2.857c0-1.041-0.585-1.68-1.544-1.68c-0.456,0-0.723,0.117-1.205,0.557v-0.43
			H86.699L86.699,470.223z M82.552,471.895c0.101-0.512,0.43-0.805,0.932-0.805s0.806,0.293,0.859,0.805H82.552z M85.676,472.809
			c0-0.586-0.064-0.979-0.201-1.344c-0.319-0.877-1.032-1.359-1.98-1.359c-1.324,0-2.258,0.959-2.258,2.328
			c0,1.389,0.904,2.318,2.267,2.318c1.051,0,1.873-0.547,2.119-1.404h-1.315c-0.183,0.273-0.42,0.393-0.767,0.393
			c-0.559,0-0.914-0.33-0.996-0.932H85.676L85.676,472.809z M80.223,468.542h-1.297v1.07h1.297V468.542z M80.223,470.223h-1.297
			v4.41h1.297V470.223z M77.976,471.813c-0.082-1.051-0.868-1.707-2.019-1.707c-1.397,0-2.237,0.885-2.237,2.338
			c0,1.416,0.849,2.311,2.192,2.311c1.169,0,1.936-0.631,2.118-1.744l-1.262-0.063c-0.1,0.52-0.354,0.758-0.821,0.758
			c-0.604,0-0.922-0.457-0.922-1.297c0-0.805,0.319-1.252,0.913-1.252c0.431,0,0.731,0.246,0.806,0.658h1.231V471.813z
			 M72.843,470.452c-0.055-0.521-0.146-0.83-0.329-1.123c-0.375-0.611-1.087-0.922-2.101-0.922c-1.534,0-2.448,0.703-2.448,1.881
			c0,0.494,0.174,0.932,0.484,1.197c0.273,0.238,0.676,0.41,1.324,0.564l1.105,0.275c0.429,0.107,0.658,0.318,0.658,0.621
			c0,0.42-0.431,0.684-1.134,0.684c-0.831,0-1.224-0.311-1.251-1.004h-1.371c0.011,1.361,0.961,2.146,2.604,2.146
			c1.58,0,2.548-0.777,2.548-2.037c0-0.484-0.155-0.877-0.466-1.16c-0.292-0.275-0.667-0.438-1.342-0.604l-1.234-0.283
			c-0.374-0.092-0.557-0.266-0.557-0.521c0-0.383,0.393-0.621,1.042-0.621c0.685,0,1.096,0.303,1.096,0.805v0.102H72.843
			L72.843,470.452z M65.435,470.278h-0.84v-0.311c0-0.256,0.155-0.393,0.456-0.393h0.384v-1.033h-0.712
			c-0.96,0-1.425,0.467-1.425,1.416v0.32h-0.612v0.914h0.612v3.441h1.297v-3.441h0.84V470.278z M59.817,471.137
			c0.667,0,1.042,0.465,1.042,1.314c0,0.795-0.384,1.27-1.042,1.27c-0.656,0-1.031-0.477-1.031-1.299
			C58.785,471.612,59.16,471.137,59.817,471.137 M59.817,470.106c-1.37,0-2.338,0.967-2.338,2.318c0,1.369,0.968,2.328,2.338,2.328
			c1.361,0,2.349-0.959,2.349-2.291C62.165,471.065,61.215,470.106,59.817,470.106 M55.186,468.542h-1.297v6.092h1.297V468.542z
			 M50.528,471.137c0.667,0,1.041,0.465,1.041,1.314c0,0.795-0.383,1.27-1.041,1.27c-0.657,0-1.031-0.477-1.031-1.299
			C49.496,471.612,49.87,471.137,50.528,471.137 M50.528,470.106c-1.369,0-2.338,0.967-2.338,2.318c0,1.369,0.969,2.328,2.338,2.328
			c1.361,0,2.349-0.959,2.349-2.291C52.876,471.065,51.926,470.106,50.528,470.106 M45.048,471.137c0.666,0,1.041,0.465,1.041,1.314
			c0,0.795-0.384,1.27-1.041,1.27c-0.658,0-1.033-0.477-1.033-1.299C44.015,471.612,44.39,471.137,45.048,471.137 M45.048,470.106
			c-1.371,0-2.339,0.967-2.339,2.318c0,1.369,0.968,2.328,2.339,2.328c1.361,0,2.347-0.959,2.347-2.291
			C47.395,471.065,46.445,470.106,45.048,470.106 M39.046,468.542h-1.297v6.092h1.297v-2.475c0-0.465,0.028-0.594,0.174-0.74
			c0.137-0.145,0.347-0.227,0.566-0.227s0.401,0.082,0.512,0.227c0.119,0.156,0.146,0.32,0.146,0.74v2.475h1.298v-2.711
			c0-0.668-0.11-1.043-0.394-1.352c-0.283-0.303-0.694-0.477-1.132-0.477c-0.457,0-0.804,0.154-1.17,0.502V468.542L39.046,468.542z
			 M36.708,471.813c-0.082-1.051-0.867-1.707-2.019-1.707c-1.397,0-2.237,0.885-2.237,2.338c0,1.416,0.849,2.311,2.191,2.311
			c1.169,0,1.937-0.631,2.119-1.744l-1.26-0.063c-0.102,0.52-0.357,0.758-0.823,0.758c-0.602,0-0.922-0.457-0.922-1.297
			c0-0.805,0.32-1.252,0.913-1.252c0.43,0,0.73,0.246,0.804,0.658h1.233V471.813z M31.575,470.452
			c-0.056-0.521-0.146-0.83-0.329-1.123c-0.374-0.611-1.087-0.922-2.102-0.922c-1.534,0-2.448,0.703-2.448,1.881
			c0,0.494,0.175,0.932,0.484,1.197c0.274,0.238,0.676,0.41,1.325,0.564l1.104,0.275c0.43,0.107,0.658,0.318,0.658,0.621
			c0,0.42-0.429,0.684-1.133,0.684c-0.831,0-1.224-0.311-1.251-1.004h-1.37c0.009,1.361,0.959,2.146,2.604,2.146
			c1.579,0,2.548-0.777,2.548-2.037c0-0.484-0.155-0.877-0.465-1.16c-0.293-0.275-0.667-0.438-1.344-0.604l-1.232-0.283
			c-0.375-0.092-0.559-0.266-0.559-0.521c0-0.383,0.394-0.621,1.042-0.621c0.686,0,1.097,0.303,1.097,0.805v0.102H31.575
			L31.575,470.452z"/>
	</g>
	<g>
		<defs>
			<rect id="SVGID_63_" x="10.347" y="401.043" width="127.559" height="84.25"/>
		</defs>
		<clipPath id="SVGID_64_">
			<use xlink:href="#SVGID_63_"  overflow="visible"/>
		</clipPath>
		<path clip-path="url(#SVGID_64_)" d="M91.622,461.083l-0.575,1.99c-0.102,0.393-0.174,0.693-0.229,0.986l-0.055-0.174
			c-0.101-0.365-0.101-0.375-0.229-0.785l-0.648-2.02h-1.389l1.453,3.709c0.153,0.383,0.163,0.41,0.163,0.566
			c0,0.383-0.21,0.557-0.667,0.557h-0.384v0.979h0.759c0.985,0,1.195-0.184,1.606-1.361l1.535-4.447H91.622z M87.886,461.135h-0.794
			v-1.396h-1.297v1.396h-0.621v0.914h0.621v2.01c0,0.686,0.054,0.922,0.255,1.143c0.192,0.209,0.475,0.291,1.042,0.291h0.794v-0.977
			h-0.465c-0.302,0-0.329-0.055-0.329-0.75v-1.717h0.794V461.135z M84.278,459.401H82.98v1.068h1.298V459.401z M84.278,461.083
			H82.98v4.41h1.298V461.083z M82.05,462.407c-0.11-0.934-0.804-1.443-1.938-1.443c-1.169,0-1.882,0.539-1.882,1.424
			c0,0.705,0.374,1.061,1.344,1.271l0.804,0.184c0.347,0.082,0.493,0.199,0.493,0.4c0,0.256-0.274,0.43-0.676,0.43
			c-0.521,0-0.795-0.201-0.867-0.611h-1.216c0.072,0.977,0.831,1.553,2.056,1.553c1.224,0,1.98-0.584,1.98-1.518
			c0-0.355-0.116-0.686-0.328-0.885c-0.19-0.201-0.466-0.32-1.005-0.43l-0.813-0.174c-0.411-0.092-0.539-0.174-0.539-0.338
			c0-0.221,0.246-0.365,0.621-0.365c0.429,0,0.693,0.174,0.749,0.502H82.05L82.05,462.407z M74.77,461.083v4.41h1.296v-1.24
			c0-0.859,0.047-1.271,0.176-1.563c0.146-0.33,0.511-0.531,0.959-0.531c0.091,0,0.173,0.01,0.327,0.027v-1.225
			c-0.939-0.008-1.27,0.191-1.524,0.904l0.037-0.785H74.77V461.083z M70.714,462.752c0.101-0.512,0.43-0.805,0.932-0.805
			s0.805,0.293,0.859,0.805H70.714z M73.838,463.667c0-0.584-0.064-0.977-0.201-1.344c-0.319-0.875-1.032-1.359-1.982-1.359
			c-1.323,0-2.256,0.959-2.256,2.33c0,1.387,0.904,2.318,2.266,2.318c1.051,0,1.873-0.547,2.119-1.406h-1.315
			c-0.183,0.273-0.42,0.393-0.767,0.393c-0.558,0-0.914-0.328-0.996-0.932H73.838z M67.417,465.493l1.498-4.41h-1.389l-0.447,1.689
			c-0.064,0.264-0.175,0.768-0.274,1.27c-0.146-0.529-0.256-0.959-0.347-1.27l-0.493-1.689h-1.361l1.58,4.41H67.417z
			 M63.782,459.401h-1.298v1.068h1.298V459.401z M63.782,461.083h-1.298v4.41h1.298V461.083z M57.242,461.083v4.41h1.297v-2.475
			c0-0.385,0.045-0.566,0.19-0.73c0.138-0.154,0.338-0.238,0.559-0.238c0.228,0,0.42,0.092,0.528,0.256
			c0.11,0.166,0.138,0.338,0.138,0.787v2.4h1.297v-2.857c0-1.041-0.584-1.682-1.543-1.682c-0.457,0-0.723,0.119-1.206,0.557v-0.428
			H57.242L57.242,461.083z M54.629,459.401v4.027c0,0.412-0.064,0.594-0.246,0.768c-0.201,0.174-0.494,0.273-0.831,0.273
			c-0.329,0-0.622-0.102-0.823-0.273c-0.182-0.174-0.246-0.355-0.246-0.768v-4.027h-1.37v4.119c0,0.768,0.201,1.252,0.657,1.59
			c0.466,0.338,1.087,0.52,1.782,0.52c0.703,0,1.324-0.184,1.79-0.52c0.457-0.34,0.657-0.822,0.657-1.59v-4.119H54.629z
			 M45.669,461.997c0.667,0,1.041,0.465,1.041,1.313c0,0.797-0.384,1.271-1.041,1.271c-0.658,0-1.032-0.475-1.032-1.297
			C44.637,462.469,45.011,461.997,45.669,461.997 M45.669,460.961c-1.37,0-2.339,0.969-2.339,2.32c0,1.371,0.969,2.33,2.339,2.33
			c1.36,0,2.347-0.959,2.347-2.293C48.016,461.922,47.066,460.961,45.669,460.961 M42.755,461.135H41.96v-1.396h-1.297v1.396h-0.621
			v0.914h0.621v2.01c0,0.686,0.055,0.922,0.256,1.143c0.191,0.209,0.475,0.291,1.041,0.291h0.795v-0.977h-0.466
			c-0.302,0-0.329-0.055-0.329-0.75v-1.717h0.795V461.135z M39.238,459.401h-1.297v6.092h1.297V459.401z M35.576,464.069
			c-0.212,0.375-0.521,0.557-0.95,0.557c-0.402,0-0.658-0.174-0.658-0.467c0-0.264,0.201-0.42,0.667-0.527l0.466-0.102
			c0.219-0.047,0.338-0.082,0.476-0.139V464.069z M34.078,462.469c0.054-0.355,0.31-0.529,0.775-0.529
			c0.43,0,0.686,0.154,0.686,0.41c0,0.174-0.101,0.258-0.394,0.303l-0.703,0.119c-1.232,0.199-1.754,0.629-1.754,1.451
			c0,0.832,0.649,1.389,1.617,1.389c0.53,0,0.831-0.109,1.271-0.465c0.045,0.162,0.045,0.191,0.1,0.346H37
			c-0.146-0.219-0.164-0.281-0.164-0.758v-2.027c0-0.658-0.119-1.006-0.438-1.287c-0.347-0.311-0.858-0.467-1.525-0.467
			c-1.242,0-1.872,0.494-1.954,1.518h1.16V462.469z M30.123,463.145h-1.38l0.739-2.385L30.123,463.145z M30.424,464.268l0.329,1.225
			h1.553l-1.937-6.092h-1.708l-2.128,6.092h1.488l0.383-1.225H30.424z"/>
	</g>
	<g>
		<defs>
			<rect id="SVGID_65_" x="10.347" y="401.043" width="127.559" height="84.25"/>
		</defs>
		<clipPath id="SVGID_66_">
			<use xlink:href="#SVGID_65_"  overflow="visible"/>
		</clipPath>
		<path clip-path="url(#SVGID_66_)" fill="#0079C1" d="M63.794,421.704h4.465c0,2.77-1.96,4.549-4.465,4.707v4.355
			c5.294-0.291,9.24-3.848,9.24-10.477v-7.82h-9.24V421.704z"/>
	</g>
	<g>
		<defs>
			<rect id="SVGID_67_" x="10.347" y="401.043" width="127.559" height="84.25"/>
		</defs>
		<clipPath id="SVGID_68_">
			<use xlink:href="#SVGID_67_"  overflow="visible"/>
		</clipPath>
		<path clip-path="url(#SVGID_68_)" fill="#0079C1" d="M76.113,421.704h4.466c0,2.77-1.96,4.549-4.466,4.707v4.355
			c5.295-0.291,9.24-3.848,9.24-10.477v-7.82h-9.24V421.704z"/>
	</g>
</g>
<path d="M51.055,436.409h-9.471l4.735-13.682L51.055,436.409z M65.709,450.866l-13.598-38.396H40.527L26.93,450.866h9.65
	l2.352-6.793h14.776l2.351,6.793H65.709z"/>
<g>
	<g>
		<defs>
			<rect id="SVGID_69_" x="10.347" y="401.043" width="127.559" height="84.25"/>
		</defs>
		<clipPath id="SVGID_70_">
			<use xlink:href="#SVGID_69_"  overflow="visible"/>
		</clipPath>
		<path clip-path="url(#SVGID_70_)" d="M275.49,111.985l-0.52,1.801c-0.091,0.355-0.157,0.628-0.207,0.892l-0.049-0.157
			c-0.092-0.33-0.092-0.339-0.207-0.71l-0.586-1.826h-1.257l1.313,3.354c0.141,0.347,0.148,0.371,0.148,0.512
			c0,0.347-0.19,0.504-0.604,0.504h-0.346v0.884h0.685c0.894,0,1.082-0.166,1.454-1.231l1.389-4.023H275.49z M272.113,112.035
			h-0.719v-1.264h-1.172v1.264h-0.563v0.826h0.563v1.817c0,0.62,0.049,0.834,0.23,1.032c0.174,0.19,0.43,0.265,0.94,0.265h0.719
			v-0.884h-0.421c-0.271,0-0.298-0.05-0.298-0.677v-1.553h0.719L272.113,112.035L272.113,112.035z M268.851,110.465h-1.173v0.966
			h1.173V110.465z M268.851,111.985h-1.173v3.99h1.173V111.985z M266.836,113.183c-0.101-0.843-0.729-1.305-1.751-1.305
			c-1.059,0-1.702,0.487-1.702,1.288c0,0.636,0.339,0.959,1.215,1.149l0.726,0.165c0.314,0.074,0.446,0.181,0.446,0.363
			c0,0.231-0.247,0.388-0.61,0.388c-0.472,0-0.719-0.181-0.784-0.553h-1.1c0.066,0.884,0.752,1.404,1.858,1.404
			c1.105,0,1.793-0.528,1.793-1.371c0-0.322-0.108-0.619-0.298-0.801c-0.174-0.182-0.422-0.289-0.908-0.388l-0.735-0.157
			c-0.372-0.083-0.487-0.157-0.487-0.306c0-0.198,0.224-0.33,0.563-0.33c0.389,0,0.628,0.157,0.677,0.454H266.836z M260.253,111.985
			v3.99h1.173v-1.124c0-0.776,0.041-1.148,0.156-1.412c0.133-0.297,0.463-0.479,0.866-0.479c0.083,0,0.157,0.008,0.298,0.025v-1.107
			c-0.851-0.008-1.147,0.173-1.379,0.818l0.032-0.711H260.253z M256.585,113.497c0.091-0.463,0.389-0.727,0.843-0.727
			s0.727,0.264,0.775,0.727H256.585z M259.409,114.323c0-0.529-0.058-0.884-0.182-1.214c-0.289-0.793-0.934-1.231-1.793-1.231
			c-1.197,0-2.04,0.867-2.04,2.106c0,1.256,0.818,2.098,2.048,2.098c0.95,0,1.694-0.495,1.917-1.272h-1.188
			c-0.165,0.248-0.381,0.355-0.693,0.355c-0.504,0-0.826-0.297-0.9-0.842H259.409z M253.604,115.975l1.354-3.99h-1.255l-0.404,1.528
			c-0.06,0.24-0.157,0.694-0.248,1.148c-0.133-0.479-0.231-0.867-0.314-1.148l-0.445-1.528h-1.229l1.429,3.99H253.604z
			 M250.315,110.465h-1.173v0.966h1.173V110.465z M250.315,111.985h-1.173v3.99h1.173V111.985z M244.401,111.985v3.99h1.173v-2.239
			c0-0.347,0.041-0.512,0.174-0.66c0.124-0.141,0.307-0.215,0.505-0.215c0.206,0,0.38,0.082,0.479,0.231
			c0.1,0.149,0.124,0.306,0.124,0.71v2.173h1.173v-2.586c0-0.941-0.527-1.519-1.396-1.519c-0.413,0-0.652,0.107-1.091,0.503v-0.388
			H244.401z M242.039,110.465v3.643c0,0.372-0.059,0.537-0.224,0.694c-0.182,0.157-0.445,0.248-0.752,0.248
			c-0.297,0-0.562-0.091-0.743-0.248c-0.165-0.157-0.223-0.322-0.223-0.694v-3.643h-1.239v3.726c0,0.694,0.182,1.131,0.595,1.437
			c0.423,0.306,0.982,0.471,1.61,0.471c0.636,0,1.198-0.165,1.619-0.471c0.413-0.306,0.595-0.743,0.595-1.437v-3.726H242.039z
			 M233.937,112.811c0.604,0,0.941,0.422,0.941,1.19c0,0.718-0.349,1.148-0.941,1.148c-0.595,0-0.934-0.43-0.934-1.173
			C233.003,113.241,233.342,112.811,233.937,112.811 M233.937,111.878c-1.239,0-2.115,0.875-2.115,2.098
			c0,1.239,0.876,2.106,2.115,2.106c1.23,0,2.123-0.867,2.123-2.073C236.06,112.745,235.2,111.878,233.937,111.878 M231.302,112.035
			h-0.72v-1.264h-1.173v1.264h-0.562v0.826h0.562v1.817c0,0.62,0.051,0.834,0.231,1.032c0.173,0.19,0.429,0.265,0.94,0.265h0.72
			v-0.884h-0.421c-0.273,0-0.299-0.05-0.299-0.677v-1.553h0.72L231.302,112.035L231.302,112.035z M228.121,110.465h-1.174v5.509
			h1.174V110.465z M224.81,114.686c-0.189,0.339-0.471,0.504-0.859,0.504c-0.362,0-0.595-0.157-0.595-0.421
			c0-0.24,0.182-0.38,0.604-0.479l0.422-0.091c0.197-0.041,0.306-0.074,0.43-0.124L224.81,114.686L224.81,114.686z M223.454,113.241
			c0.05-0.322,0.28-0.479,0.701-0.479c0.39,0,0.619,0.14,0.619,0.371c0,0.157-0.09,0.232-0.354,0.273l-0.637,0.107
			c-1.114,0.182-1.587,0.57-1.587,1.314c0,0.751,0.588,1.255,1.463,1.255c0.479,0,0.752-0.099,1.148-0.421
			c0.041,0.149,0.041,0.173,0.09,0.314h1.198c-0.132-0.198-0.149-0.256-0.149-0.686v-1.833c0-0.595-0.105-0.909-0.396-1.165
			c-0.314-0.281-0.777-0.421-1.379-0.421c-1.124,0-1.694,0.446-1.77,1.371H223.454L223.454,113.241z M219.878,113.852h-1.247
			l0.669-2.156L219.878,113.852z M220.15,114.868l0.297,1.107h1.405l-1.752-5.51h-1.544l-1.925,5.51h1.347l0.347-1.107H220.15z"/>
	</g>
	<g>
		<defs>
			<rect id="SVGID_71_" x="10.347" y="401.043" width="127.559" height="84.25"/>
		</defs>
		<clipPath id="SVGID_72_">
			<use xlink:href="#SVGID_71_"  overflow="visible"/>
		</clipPath>
		<path clip-path="url(#SVGID_72_)" fill="#FFD200" d="M196.347,115.768h2.563c0,1.59-1.125,2.611-2.563,2.702v2.501
			c3.04-0.166,5.305-2.209,5.305-6.015v-4.49h-5.305V115.768z"/>
	</g>
	<g>
		<defs>
			<rect id="SVGID_73_" x="10.347" y="401.043" width="127.559" height="84.25"/>
		</defs>
		<clipPath id="SVGID_74_">
			<use xlink:href="#SVGID_73_"  overflow="visible"/>
		</clipPath>
		<path clip-path="url(#SVGID_74_)" fill="#FFD200" d="M203.42,115.768h2.563c0,1.59-1.125,2.611-2.563,2.702v2.501
			c3.04-0.166,5.305-2.209,5.305-6.015v-4.49h-5.305V115.768z"/>
	</g>
	<g>
		<defs>
			<rect id="SVGID_75_" x="10.347" y="401.043" width="127.559" height="84.25"/>
		</defs>
		<clipPath id="SVGID_76_">
			<use xlink:href="#SVGID_75_"  overflow="visible"/>
		</clipPath>
		<path clip-path="url(#SVGID_76_)" fill="#A2978A" d="M291.939,227.569c-0.1-0.842-0.728-1.305-1.751-1.305
			c-1.059,0-1.702,0.487-1.702,1.289c0,0.636,0.339,0.958,1.214,1.148l0.728,0.165c0.313,0.074,0.446,0.182,0.446,0.363
			c0,0.232-0.248,0.389-0.611,0.389c-0.471,0-0.719-0.182-0.784-0.554h-1.099c0.065,0.884,0.751,1.404,1.857,1.404
			s1.793-0.528,1.793-1.371c0-0.322-0.107-0.619-0.298-0.801c-0.173-0.182-0.421-0.289-0.908-0.388l-0.734-0.157
			c-0.372-0.083-0.488-0.157-0.488-0.306c0-0.198,0.225-0.33,0.563-0.33c0.388,0,0.628,0.157,0.677,0.454H291.939L291.939,227.569z
			 M287.686,227.809c-0.074-0.95-0.785-1.545-1.826-1.545c-1.264,0-2.022,0.801-2.022,2.115c0,1.28,0.769,2.089,1.981,2.089
			c1.058,0,1.751-0.57,1.917-1.577l-1.141-0.058c-0.091,0.471-0.321,0.686-0.744,0.686c-0.545,0-0.834-0.413-0.834-1.173
			c0-0.727,0.289-1.132,0.826-1.132c0.389,0,0.661,0.223,0.728,0.595H287.686z M282.919,224.852h-1.173v0.966h1.173V224.852z
			 M282.919,226.371h-1.173v3.99h1.173V226.371z M274.733,226.371v3.99h1.173v-2.197c0-0.603,0.189-0.884,0.596-0.884
			c0.405,0,0.595,0.281,0.595,0.884v2.197h1.174v-2.197c0-0.603,0.182-0.884,0.594-0.884c0.405,0,0.588,0.281,0.588,0.884v2.197
			h1.173v-2.651c0-0.513-0.091-0.835-0.313-1.066c-0.23-0.248-0.588-0.38-0.991-0.38c-0.513,0-0.811,0.149-1.238,0.644
			c-0.232-0.437-0.596-0.644-1.107-0.644c-0.479,0-0.727,0.141-1.099,0.587v-0.48H274.733L274.733,226.371z M271.694,227.197
			c0.604,0,0.94,0.422,0.94,1.19c0,0.719-0.347,1.148-0.94,1.148c-0.596,0-0.935-0.429-0.935-1.173
			C270.76,227.627,271.099,227.197,271.694,227.197 M271.694,226.264c-1.238,0-2.114,0.876-2.114,2.098
			c0,1.239,0.876,2.106,2.114,2.106c1.229,0,2.123-0.867,2.123-2.073C273.817,227.131,272.958,226.264,271.694,226.264
			 M265.036,226.371v3.99h1.173v-2.238c0-0.347,0.041-0.513,0.174-0.661c0.123-0.141,0.306-0.215,0.503-0.215
			c0.207,0,0.38,0.083,0.48,0.231c0.099,0.149,0.122,0.306,0.122,0.711v2.172h1.174v-2.585c0-0.942-0.528-1.52-1.396-1.52
			c-0.412,0-0.651,0.107-1.09,0.504v-0.389H265.036z M261.997,227.197c0.603,0,0.94,0.422,0.94,1.19c0,0.719-0.348,1.148-0.94,1.148
			c-0.596,0-0.935-0.429-0.935-1.173C261.063,227.627,261.402,227.197,261.997,227.197 M261.997,226.264
			c-1.239,0-2.115,0.876-2.115,2.098c0,1.239,0.876,2.106,2.115,2.106c1.229,0,2.122-0.867,2.122-2.073
			C264.119,227.131,263.26,226.264,261.997,226.264 M259.221,227.809c-0.073-0.95-0.783-1.545-1.824-1.545
			c-1.265,0-2.023,0.801-2.023,2.115c0,1.28,0.768,2.089,1.981,2.089c1.059,0,1.752-0.57,1.917-1.577l-1.141-0.058
			c-0.091,0.471-0.321,0.686-0.743,0.686c-0.546,0-0.835-0.413-0.835-1.173c0-0.727,0.289-1.132,0.826-1.132
			c0.39,0,0.661,0.223,0.728,0.595H259.221z M254.637,224.852h-4.104v5.509h4.155v-1.057h-2.916v-1.347h2.503v-0.974h-2.503v-1.074
			h2.865V224.852z M247.93,226.421h-0.76v-0.281c0-0.231,0.141-0.355,0.413-0.355h0.347v-0.933h-0.644
			c-0.868,0-1.289,0.421-1.289,1.28v0.289h-0.554v0.826h0.554v3.114h1.173v-3.114h0.76V226.421z M242.85,227.197
			c0.604,0,0.942,0.422,0.942,1.19c0,0.719-0.348,1.148-0.942,1.148s-0.933-0.429-0.933-1.173
			C241.917,227.627,242.255,227.197,242.85,227.197 M242.85,226.264c-1.238,0-2.113,0.876-2.113,2.098
			c0,1.239,0.875,2.106,2.113,2.106c1.231,0,2.123-0.867,2.123-2.073C244.973,227.131,244.114,226.264,242.85,226.264
			 M238.414,224.852h-1.174v5.509h1.174V224.852z M234.202,227.197c0.603,0,0.941,0.422,0.941,1.19c0,0.719-0.348,1.148-0.941,1.148
			c-0.595,0-0.934-0.429-0.934-1.173C233.27,227.627,233.607,227.197,234.202,227.197 M234.202,226.264
			c-1.239,0-2.115,0.876-2.115,2.098c0,1.239,0.876,2.106,2.115,2.106c1.229,0,2.123-0.867,2.123-2.073
			C236.325,227.131,235.466,226.264,234.202,226.264 M229.246,227.197c0.603,0,0.941,0.422,0.941,1.19
			c0,0.719-0.348,1.148-0.941,1.148c-0.595,0-0.934-0.429-0.934-1.173C228.313,227.627,228.651,227.197,229.246,227.197
			 M229.246,226.264c-1.239,0-2.115,0.876-2.115,2.098c0,1.239,0.876,2.106,2.115,2.106c1.23,0,2.123-0.867,2.123-2.073
			C231.369,227.131,230.51,226.264,229.246,226.264 M223.778,224.852h-1.173v5.509h1.173v-2.238c0-0.422,0.024-0.537,0.157-0.669
			c0.124-0.133,0.313-0.207,0.512-0.207c0.199,0,0.363,0.074,0.463,0.207c0.106,0.14,0.133,0.289,0.133,0.669v2.238h1.173v-2.453
			c0-0.603-0.101-0.942-0.355-1.223c-0.256-0.272-0.627-0.429-1.023-0.429c-0.413,0-0.728,0.14-1.058,0.454L223.778,224.852
			L223.778,224.852z M221.705,227.809c-0.075-0.95-0.785-1.545-1.826-1.545c-1.265,0-2.022,0.801-2.022,2.115
			c0,1.28,0.769,2.089,1.981,2.089c1.058,0,1.751-0.57,1.916-1.577l-1.141-0.058c-0.09,0.471-0.321,0.686-0.742,0.686
			c-0.545,0-0.834-0.413-0.834-1.173c0-0.727,0.289-1.132,0.825-1.132c0.389,0,0.661,0.223,0.728,0.595H221.705z M217.104,226.578
			c-0.051-0.471-0.133-0.752-0.298-1.016c-0.339-0.553-0.982-0.834-1.899-0.834c-1.388,0-2.214,0.636-2.214,1.701
			c0,0.446,0.156,0.843,0.438,1.082c0.248,0.215,0.611,0.372,1.198,0.512l0.999,0.248c0.388,0.099,0.595,0.289,0.595,0.562
			c0,0.38-0.388,0.619-1.023,0.619c-0.752,0-1.106-0.28-1.133-0.908h-1.238c0.009,1.231,0.867,1.941,2.354,1.941
			c1.43,0,2.306-0.702,2.306-1.842c0-0.438-0.142-0.793-0.423-1.049c-0.264-0.248-0.603-0.396-1.214-0.545l-1.114-0.256
			c-0.34-0.083-0.505-0.24-0.505-0.471c0-0.347,0.355-0.563,0.942-0.563c0.619,0,0.99,0.273,0.99,0.727v0.091H217.104z"/>
	</g>
	<g>
		<defs>
			<rect id="SVGID_77_" x="10.347" y="401.043" width="127.559" height="84.25"/>
		</defs>
		<clipPath id="SVGID_78_">
			<use xlink:href="#SVGID_77_"  overflow="visible"/>
		</clipPath>
		<path clip-path="url(#SVGID_78_)" d="M271.404,218.104l-0.521,1.801c-0.091,0.354-0.156,0.628-0.207,0.892l-0.049-0.157
			c-0.091-0.33-0.091-0.339-0.207-0.71l-0.586-1.826h-1.256l1.313,3.354c0.14,0.347,0.147,0.371,0.147,0.512
			c0,0.347-0.19,0.504-0.604,0.504h-0.347v0.884h0.686c0.893,0,1.082-0.166,1.454-1.231l1.389-4.023H271.404z M268.026,218.154
			h-0.72v-1.264h-1.172v1.264h-0.563v0.826h0.563v1.817c0,0.62,0.05,0.834,0.23,1.032c0.174,0.19,0.43,0.265,0.94,0.265h0.72v-0.884
			h-0.421c-0.272,0-0.299-0.05-0.299-0.677v-1.553h0.72L268.026,218.154L268.026,218.154z M264.763,216.584h-1.173v0.966h1.173
			V216.584z M264.763,218.104h-1.173v3.99h1.173V218.104z M262.748,219.302c-0.1-0.843-0.728-1.305-1.751-1.305
			c-1.058,0-1.702,0.487-1.702,1.288c0,0.636,0.339,0.959,1.215,1.149l0.727,0.165c0.313,0.074,0.445,0.181,0.445,0.363
			c0,0.231-0.246,0.388-0.61,0.388c-0.472,0-0.718-0.181-0.783-0.553h-1.1c0.065,0.884,0.752,1.404,1.857,1.404
			c1.106,0,1.793-0.528,1.793-1.371c0-0.322-0.107-0.619-0.298-0.801c-0.173-0.182-0.421-0.289-0.908-0.388l-0.734-0.157
			c-0.372-0.083-0.487-0.157-0.487-0.306c0-0.198,0.223-0.33,0.562-0.33c0.389,0,0.628,0.157,0.678,0.454H262.748z M256.165,218.104
			v3.99h1.173v-1.124c0-0.776,0.041-1.148,0.157-1.412c0.132-0.297,0.462-0.479,0.866-0.479c0.083,0,0.157,0.008,0.298,0.025v-1.107
			c-0.851-0.008-1.148,0.173-1.38,0.818l0.033-0.711H256.165z M252.497,219.616c0.091-0.463,0.389-0.727,0.843-0.727
			s0.728,0.264,0.775,0.727H252.497z M255.322,220.442c0-0.529-0.058-0.884-0.182-1.214c-0.288-0.793-0.934-1.231-1.793-1.231
			c-1.196,0-2.04,0.867-2.04,2.106c0,1.256,0.818,2.098,2.049,2.098c0.949,0,1.693-0.495,1.917-1.272h-1.189
			c-0.165,0.248-0.38,0.355-0.693,0.355c-0.504,0-0.825-0.297-0.9-0.842H255.322z M249.516,222.094l1.354-3.99h-1.256l-0.404,1.528
			c-0.059,0.24-0.157,0.694-0.248,1.148c-0.132-0.479-0.23-0.867-0.313-1.148l-0.445-1.528h-1.23l1.43,3.99H249.516z
			 M246.229,216.584h-1.174v0.966h1.174V216.584z M246.229,218.104h-1.174v3.99h1.174V218.104z M240.314,218.104v3.99h1.173v-2.239
			c0-0.347,0.041-0.512,0.174-0.66c0.124-0.141,0.306-0.215,0.504-0.215c0.207,0,0.38,0.082,0.479,0.231
			c0.1,0.149,0.123,0.306,0.123,0.71v2.173h1.174v-2.586c0-0.941-0.527-1.519-1.396-1.519c-0.413,0-0.652,0.107-1.09,0.503v-0.388
			H240.314z M237.952,216.584v3.643c0,0.372-0.059,0.537-0.224,0.694c-0.183,0.157-0.446,0.248-0.752,0.248
			c-0.298,0-0.563-0.091-0.743-0.248c-0.165-0.157-0.224-0.322-0.224-0.694v-3.643h-1.238v3.726c0,0.694,0.182,1.131,0.594,1.437
			c0.423,0.306,0.982,0.471,1.611,0.471c0.636,0,1.197-0.165,1.618-0.471c0.413-0.306,0.596-0.743,0.596-1.437v-3.726H237.952z
			 M229.849,218.93c0.604,0,0.941,0.422,0.941,1.19c0,0.718-0.348,1.148-0.941,1.148s-0.934-0.43-0.934-1.173
			C228.915,219.36,229.254,218.93,229.849,218.93 M229.849,217.997c-1.238,0-2.114,0.875-2.114,2.098
			c0,1.239,0.876,2.106,2.114,2.106c1.231,0,2.123-0.867,2.123-2.073C231.972,218.864,231.113,217.997,229.849,217.997
			 M227.214,218.154h-0.719v-1.264h-1.174v1.264h-0.562v0.826h0.562v1.817c0,0.62,0.051,0.834,0.231,1.032
			c0.174,0.19,0.43,0.265,0.941,0.265h0.719v-0.884h-0.421c-0.272,0-0.298-0.05-0.298-0.677v-1.553h0.719L227.214,218.154
			L227.214,218.154z M224.034,216.584h-1.174v5.509h1.174V216.584z M220.722,220.805c-0.188,0.339-0.471,0.504-0.859,0.504
			c-0.362,0-0.594-0.157-0.594-0.421c0-0.24,0.182-0.38,0.604-0.479l0.421-0.091c0.198-0.041,0.306-0.074,0.43-0.124
			L220.722,220.805L220.722,220.805z M219.367,219.36c0.049-0.322,0.28-0.479,0.701-0.479c0.389,0,0.619,0.14,0.619,0.371
			c0,0.157-0.091,0.232-0.354,0.273l-0.637,0.107c-1.114,0.182-1.586,0.57-1.586,1.314c0,0.751,0.587,1.255,1.462,1.255
			c0.479,0,0.753-0.099,1.148-0.421c0.041,0.149,0.041,0.173,0.091,0.314h1.197c-0.132-0.198-0.148-0.256-0.148-0.686v-1.833
			c0-0.595-0.106-0.909-0.396-1.165c-0.313-0.281-0.776-0.421-1.379-0.421c-1.124,0-1.694,0.446-1.769,1.371H219.367z
			 M215.79,219.971h-1.247l0.669-2.156L215.79,219.971z M216.063,220.987l0.297,1.107h1.404l-1.752-5.51h-1.544l-1.925,5.51h1.347
			l0.348-1.107H216.063z"/>
	</g>
	<g>
		<defs>
			<rect id="SVGID_79_" x="10.347" y="401.043" width="127.559" height="84.25"/>
		</defs>
		<clipPath id="SVGID_80_">
			<use xlink:href="#SVGID_79_"  overflow="visible"/>
		</clipPath>
		<path clip-path="url(#SVGID_80_)" fill="#A2978A" d="M308.185,333.479v3.988h1.174v-2.237c0-0.347,0.041-0.513,0.173-0.66
			c0.124-0.142,0.307-0.216,0.504-0.216c0.207,0,0.381,0.083,0.479,0.23c0.101,0.15,0.124,0.307,0.124,0.711v2.172h1.173v-2.584
			c0-0.942-0.527-1.52-1.396-1.52c-0.413,0-0.652,0.105-1.091,0.504v-0.389H308.185L308.185,333.479z M305.055,334.322
			c0.521,0,0.884,0.404,0.884,0.974c0,0.613-0.354,1.008-0.893,1.008c-0.521,0-0.884-0.404-0.884-0.991
			C304.162,334.726,304.526,334.322,305.055,334.322 M305.954,333.502l0.033,0.49c-0.297-0.432-0.653-0.621-1.165-0.621
			c-1.017,0-1.775,0.842-1.775,1.959c0,1.123,0.752,1.922,1.801,1.922c0.445,0,0.728-0.106,1.074-0.428v0.264
			c0,0.397-0.041,0.537-0.198,0.677c-0.132,0.116-0.331,0.174-0.579,0.174c-0.388,0-0.618-0.124-0.701-0.371h-1.215
			c0.083,0.817,0.753,1.271,1.867,1.271c0.693,0,1.238-0.18,1.603-0.536c0.28-0.271,0.372-0.56,0.372-1.214v-3.586H305.954
			L305.954,333.502z M302.18,331.959h-1.173v0.965h1.173V331.959z M302.18,333.479h-1.173v3.99h1.173V333.479z M300,334.676
			c-0.101-0.842-0.728-1.305-1.752-1.305c-1.058,0-1.701,0.487-1.701,1.289c0,0.635,0.339,0.959,1.214,1.147l0.728,0.165
			c0.313,0.074,0.445,0.184,0.445,0.363c0,0.232-0.248,0.389-0.61,0.389c-0.472,0-0.72-0.182-0.784-0.555h-1.099
			c0.065,0.885,0.751,1.406,1.857,1.406s1.792-0.529,1.792-1.371c0-0.324-0.106-0.621-0.297-0.801
			c-0.174-0.184-0.422-0.289-0.908-0.39l-0.735-0.156c-0.371-0.084-0.486-0.157-0.486-0.307c0-0.198,0.223-0.33,0.562-0.33
			c0.389,0,0.627,0.157,0.678,0.454H300L300,334.676z M292.937,334.991c0.092-0.462,0.391-0.728,0.844-0.728
			c0.454,0,0.728,0.266,0.775,0.728H292.937z M295.762,335.816c0-0.528-0.058-0.884-0.181-1.214c-0.29-0.793-0.935-1.23-1.793-1.23
			c-1.198,0-2.04,0.867-2.04,2.105c0,1.257,0.817,2.1,2.048,2.1c0.95,0,1.693-0.496,1.917-1.273h-1.189
			c-0.165,0.248-0.381,0.357-0.693,0.357c-0.503,0-0.826-0.299-0.9-0.845H295.762z M287.568,336.413v-3.396h0.917
			c0.504,0,0.844,0.173,1.059,0.554c0.181,0.313,0.264,0.679,0.264,1.14c0,0.479-0.091,0.859-0.271,1.164
			c-0.231,0.381-0.57,0.539-1.132,0.539H287.568z M286.329,337.467h1.908c1.023,0,1.636-0.215,2.113-0.725
			c0.454-0.496,0.72-1.256,0.72-2.059c0-0.768-0.239-1.471-0.679-1.965c-0.494-0.561-1.082-0.76-2.196-0.76h-1.866V337.467z
			 M281.349,334.313c0.513,0,0.853,0.462,0.853,1.174c0,0.678-0.349,1.139-0.853,1.139s-0.843-0.461-0.843-1.156
			C280.506,334.775,280.845,334.313,281.349,334.313 M283.331,331.959h-1.174v1.817c-0.28-0.289-0.595-0.413-1.023-0.413
			c-1.074,0-1.784,0.842-1.784,2.113c0,1.257,0.702,2.1,1.76,2.1c0.487,0,0.802-0.149,1.1-0.537v0.428h1.123L283.331,331.959
			L283.331,331.959z M274.938,333.479v3.988h1.174v-2.237c0-0.347,0.041-0.513,0.174-0.66c0.124-0.142,0.306-0.216,0.504-0.216
			c0.207,0,0.38,0.083,0.479,0.23c0.102,0.15,0.124,0.307,0.124,0.711v2.172h1.174v-2.584c0-0.942-0.527-1.52-1.396-1.52
			c-0.413,0-0.652,0.105-1.09,0.504v-0.389H274.938L274.938,333.479z M272.676,336.18c-0.189,0.338-0.471,0.503-0.858,0.503
			c-0.363,0-0.596-0.156-0.596-0.421c0-0.239,0.183-0.381,0.604-0.479l0.421-0.091c0.198-0.041,0.306-0.073,0.43-0.124
			L272.676,336.18L272.676,336.18z M271.321,334.735c0.051-0.322,0.28-0.48,0.702-0.48c0.39,0,0.619,0.141,0.619,0.373
			c0,0.158-0.091,0.231-0.354,0.271l-0.637,0.107c-1.115,0.182-1.586,0.572-1.586,1.314c0,0.752,0.586,1.256,1.462,1.256
			c0.479,0,0.751-0.101,1.147-0.422c0.041,0.148,0.041,0.174,0.091,0.313h1.197c-0.132-0.197-0.147-0.256-0.147-0.684v-1.834
			c0-0.596-0.107-0.91-0.396-1.164c-0.314-0.283-0.776-0.422-1.379-0.422c-1.124,0-1.693,0.445-1.769,1.371H271.321z
			 M267.687,333.529h-0.719v-1.265h-1.173v1.265h-0.562v0.825h0.562v1.816c0,0.621,0.05,0.836,0.231,1.035
			c0.174,0.188,0.43,0.262,0.94,0.262h0.719v-0.883h-0.421c-0.271,0-0.298-0.049-0.298-0.676v-1.555h0.719L267.687,333.529
			L267.687,333.529z M262.161,333.479v3.988h1.173v-1.122c0-0.776,0.041-1.147,0.157-1.413c0.132-0.297,0.462-0.479,0.866-0.479
			c0.083,0,0.156,0.008,0.297,0.024v-1.106c-0.851-0.008-1.147,0.174-1.379,0.817l0.032-0.71H262.161L262.161,333.479z
			 M259.543,335.345h-1.248l0.669-2.156L259.543,335.345z M259.815,336.362l0.298,1.105h1.403l-1.751-5.508h-1.545l-1.925,5.508
			h1.347l0.348-1.105H259.815z M254.322,333.529h-0.761v-0.282c0-0.23,0.143-0.354,0.413-0.354h0.348v-0.933h-0.645
			c-0.867,0-1.288,0.42-1.288,1.28v0.289h-0.554v0.825h0.554v3.113h1.172v-3.113h0.761V333.529z M249.243,334.304
			c0.602,0,0.939,0.422,0.939,1.19c0,0.719-0.347,1.147-0.939,1.147c-0.596,0-0.936-0.429-0.936-1.173
			C248.309,334.735,248.648,334.304,249.243,334.304 M249.243,333.372c-1.24,0-2.115,0.877-2.115,2.098
			c0,1.238,0.875,2.107,2.115,2.107c1.229,0,2.121-0.869,2.121-2.074C251.365,334.239,250.506,333.372,249.243,333.372
			 M244.683,331.959h-1.173v5.508h1.173V331.959z M240.47,334.304c0.604,0,0.942,0.422,0.942,1.19c0,0.719-0.348,1.147-0.942,1.147
			c-0.594,0-0.933-0.429-0.933-1.173C239.537,334.735,239.876,334.304,240.47,334.304 M240.47,333.372
			c-1.238,0-2.113,0.877-2.113,2.098c0,1.238,0.875,2.107,2.113,2.107c1.231,0,2.123-0.869,2.123-2.074
			C242.593,334.239,241.734,333.372,240.47,333.372 M235.514,334.304c0.604,0,0.942,0.422,0.942,1.19
			c0,0.719-0.348,1.147-0.942,1.147c-0.594,0-0.933-0.429-0.933-1.173C234.581,334.735,234.92,334.304,235.514,334.304
			 M235.514,333.372c-1.238,0-2.113,0.877-2.113,2.098c0,1.238,0.875,2.107,2.113,2.107c1.231,0,2.123-0.869,2.123-2.074
			C237.637,334.239,236.778,333.372,235.514,333.372 M230.046,331.959h-1.173v5.508h1.173v-2.237c0-0.422,0.024-0.536,0.157-0.669
			c0.124-0.133,0.313-0.207,0.512-0.207s0.364,0.074,0.463,0.207c0.107,0.141,0.132,0.289,0.132,0.669v2.237h1.174v-2.452
			c0-0.603-0.1-0.94-0.354-1.224c-0.256-0.271-0.628-0.428-1.024-0.428c-0.412,0-0.727,0.139-1.058,0.454L230.046,331.959
			L230.046,331.959z M227.973,334.917c-0.073-0.951-0.784-1.545-1.824-1.545c-1.265,0-2.023,0.801-2.023,2.115
			c0,1.279,0.768,2.09,1.981,2.09c1.059,0,1.752-0.57,1.917-1.578l-1.141-0.059c-0.091,0.473-0.322,0.686-0.743,0.686
			c-0.546,0-0.835-0.412-0.835-1.172c0-0.728,0.289-1.132,0.826-1.132c0.388,0,0.661,0.222,0.728,0.595H227.973L227.973,334.917z
			 M223.356,333.685c-0.051-0.472-0.133-0.752-0.298-1.017c-0.339-0.551-0.981-0.834-1.898-0.834c-1.39,0-2.215,0.637-2.215,1.703
			c0,0.444,0.156,0.842,0.438,1.082c0.248,0.213,0.611,0.371,1.198,0.51l0.999,0.248c0.388,0.1,0.595,0.289,0.595,0.563
			c0,0.381-0.388,0.619-1.023,0.619c-0.752,0-1.106-0.279-1.133-0.907h-1.238c0.009,1.229,0.867,1.94,2.354,1.94
			c1.429,0,2.305-0.702,2.305-1.842c0-0.438-0.141-0.793-0.422-1.049c-0.264-0.248-0.603-0.398-1.214-0.545l-1.115-0.257
			c-0.339-0.082-0.504-0.239-0.504-0.472c0-0.346,0.355-0.561,0.942-0.561c0.619,0,0.991,0.272,0.991,0.727v0.091H223.356
			L223.356,333.685z"/>
	</g>
	<g>
		<defs>
			<rect id="SVGID_81_" x="10.347" y="401.043" width="127.559" height="84.25"/>
		</defs>
		<clipPath id="SVGID_82_">
			<use xlink:href="#SVGID_81_"  overflow="visible"/>
		</clipPath>
		<path clip-path="url(#SVGID_82_)" d="M277.656,325.211l-0.52,1.801c-0.091,0.355-0.157,0.628-0.207,0.893l-0.049-0.158
			c-0.092-0.33-0.092-0.338-0.207-0.709l-0.586-1.826h-1.257l1.313,3.354c0.141,0.348,0.148,0.372,0.148,0.512
			c0,0.348-0.19,0.504-0.604,0.504h-0.346v0.885h0.685c0.894,0,1.082-0.166,1.454-1.23l1.389-4.023H277.656L277.656,325.211z
			 M274.278,325.26h-0.719v-1.264h-1.172v1.264h-0.563v0.826h0.563v1.818c0,0.619,0.049,0.834,0.23,1.032
			c0.173,0.19,0.43,0.265,0.94,0.265h0.719v-0.884h-0.421c-0.271,0-0.298-0.051-0.298-0.678v-1.554h0.719L274.278,325.26
			L274.278,325.26z M271.016,323.691h-1.173v0.968h1.173V323.691z M271.016,325.211h-1.173v3.99h1.173V325.211z M269.001,326.409
			c-0.101-0.843-0.729-1.305-1.752-1.305c-1.058,0-1.701,0.486-1.701,1.288c0,0.637,0.339,0.959,1.215,1.149l0.726,0.164
			c0.314,0.076,0.446,0.183,0.446,0.364c0,0.229-0.247,0.388-0.61,0.388c-0.472,0-0.719-0.181-0.784-0.553h-1.1
			c0.066,0.883,0.752,1.403,1.858,1.403c1.105,0,1.793-0.526,1.793-1.371c0-0.321-0.108-0.618-0.298-0.802
			c-0.174-0.182-0.422-0.288-0.908-0.387l-0.735-0.158c-0.372-0.082-0.487-0.156-0.487-0.305c0-0.199,0.224-0.33,0.563-0.33
			c0.388,0,0.628,0.158,0.677,0.453H269.001L269.001,326.409z M262.417,325.211v3.99h1.174v-1.125c0-0.775,0.041-1.148,0.156-1.412
			c0.133-0.297,0.463-0.479,0.866-0.479c0.083,0,0.157,0.009,0.298,0.025v-1.107c-0.851-0.008-1.147,0.174-1.38,0.818l0.033-0.711
			H262.417z M258.749,326.723c0.092-0.463,0.39-0.727,0.844-0.727s0.727,0.264,0.775,0.727H258.749z M261.573,327.549
			c0-0.529-0.057-0.885-0.181-1.215c-0.289-0.793-0.934-1.23-1.793-1.23c-1.197,0-2.04,0.867-2.04,2.105
			c0,1.256,0.818,2.099,2.048,2.099c0.95,0,1.694-0.495,1.917-1.272h-1.188c-0.165,0.248-0.381,0.355-0.693,0.355
			c-0.504,0-0.826-0.297-0.9-0.842H261.573z M255.769,329.202l1.354-3.99h-1.255l-0.404,1.529c-0.06,0.238-0.157,0.692-0.248,1.147
			c-0.133-0.479-0.231-0.868-0.314-1.147l-0.445-1.529h-1.229l1.429,3.99H255.769z M252.48,323.691h-1.173v0.968h1.173V323.691z
			 M252.48,325.211h-1.173v3.99h1.173V325.211z M246.566,325.211v3.99h1.173v-2.24c0-0.346,0.041-0.512,0.174-0.66
			c0.124-0.141,0.307-0.215,0.504-0.215c0.207,0,0.381,0.082,0.479,0.232c0.1,0.148,0.124,0.305,0.124,0.71v2.173h1.173v-2.586
			c0-0.941-0.527-1.52-1.396-1.52c-0.413,0-0.652,0.107-1.091,0.503v-0.388H246.566L246.566,325.211z M244.204,323.691v3.644
			c0,0.371-0.059,0.537-0.224,0.695c-0.182,0.155-0.445,0.247-0.752,0.247c-0.297,0-0.563-0.092-0.743-0.247
			c-0.165-0.158-0.223-0.324-0.223-0.695v-3.644h-1.239v3.726c0,0.695,0.182,1.131,0.595,1.438c0.422,0.307,0.982,0.471,1.61,0.471
			c0.636,0,1.198-0.164,1.619-0.471c0.413-0.307,0.595-0.742,0.595-1.438v-3.726H244.204z M236.102,326.038
			c0.604,0,0.94,0.422,0.94,1.189c0,0.719-0.348,1.148-0.94,1.148c-0.595,0-0.935-0.43-0.935-1.174
			C235.167,326.467,235.507,326.038,236.102,326.038 M236.102,325.104c-1.239,0-2.115,0.875-2.115,2.098
			c0,1.239,0.876,2.106,2.115,2.106c1.23,0,2.123-0.867,2.123-2.072C238.225,325.971,237.365,325.104,236.102,325.104
			 M233.467,325.26h-0.72v-1.264h-1.174v1.264h-0.561v0.826h0.561v1.818c0,0.619,0.051,0.834,0.232,1.032
			c0.173,0.19,0.429,0.265,0.94,0.265h0.72v-0.884h-0.421c-0.273,0-0.299-0.051-0.299-0.678v-1.554h0.72L233.467,325.26
			L233.467,325.26z M230.286,323.691h-1.174v5.511h1.174V323.691z M226.975,327.913c-0.189,0.338-0.471,0.504-0.86,0.504
			c-0.361,0-0.594-0.158-0.594-0.422c0-0.24,0.182-0.379,0.604-0.479l0.422-0.092c0.197-0.041,0.306-0.073,0.43-0.123
			L226.975,327.913L226.975,327.913z M225.619,326.467c0.05-0.322,0.28-0.479,0.701-0.479c0.39,0,0.619,0.139,0.619,0.371
			c0,0.156-0.09,0.23-0.354,0.271l-0.638,0.109c-1.113,0.18-1.586,0.568-1.586,1.313c0,0.751,0.588,1.255,1.463,1.255
			c0.479,0,0.752-0.099,1.148-0.421c0.041,0.148,0.041,0.173,0.09,0.314h1.198c-0.132-0.199-0.149-0.256-0.149-0.687v-1.833
			c0-0.596-0.105-0.909-0.396-1.165c-0.314-0.28-0.777-0.421-1.379-0.421c-1.124,0-1.694,0.445-1.77,1.371H225.619z
			 M222.042,327.079h-1.246l0.669-2.156L222.042,327.079z M222.315,328.094l0.297,1.107h1.405l-1.752-5.511h-1.544l-1.925,5.511
			h1.347l0.347-1.107H222.315z"/>
	</g>
	<g>
		<defs>
			<rect id="SVGID_83_" x="10.347" y="401.043" width="127.559" height="84.25"/>
		</defs>
		<clipPath id="SVGID_84_">
			<use xlink:href="#SVGID_83_"  overflow="visible"/>
		</clipPath>
		<path clip-path="url(#SVGID_84_)" fill="#EF4135" d="M211.389,329.77c0-4.243-3.378-6.616-8.219-6.616
			c-4.682,0-8.297,2.427-8.297,6.718v0.69h4.953c0-2.054,1.391-2.968,3.28-2.968c1.742,0,2.976,0.929,2.976,2.35
			c0,1.135-0.647,1.898-2.083,2.709c-2.082,1.174-3.355,2.545-3.355,5.826v0.486h4.979v-0.199c0-1.758,0.496-2.432,2.331-3.643
			C209.615,334.028,211.389,332.543,211.389,329.77"/>
	</g>
	<g>
		<defs>
			<rect id="SVGID_85_" x="10.347" y="401.043" width="127.559" height="84.25"/>
		</defs>
		<clipPath id="SVGID_86_">
			<use xlink:href="#SVGID_85_"  overflow="visible"/>
		</clipPath>
		<path clip-path="url(#SVGID_86_)" fill="#A2978A" d="M219.355,448.206c-0.189,0.34-0.471,0.504-0.858,0.504
			c-0.363,0-0.595-0.156-0.595-0.42c0-0.24,0.182-0.381,0.604-0.48l0.421-0.09c0.198-0.041,0.307-0.076,0.43-0.125L219.355,448.206
			L219.355,448.206z M220.645,449.495c-0.133-0.197-0.148-0.256-0.148-0.688v-1.832c0-0.594-0.107-0.908-0.396-1.166
			c-0.313-0.279-0.776-0.42-1.38-0.42c-1.123,0-1.692,0.447-1.767,1.371h1.049c0.049-0.322,0.281-0.479,0.702-0.479
			c0.388,0,0.618,0.141,0.618,0.371c0,0.156-0.09,0.232-0.354,0.273l-0.636,0.107c-1.115,0.182-1.586,0.568-1.586,1.313
			c0,0.752,0.587,1.254,1.462,1.254c0.479,0,0.752-0.098,1.147-0.42c0.042,0.148,0.042,0.174,0.091,0.314H220.645L220.645,449.495z"
			/>
	</g>
	<g>
		<defs>
			<rect id="SVGID_87_" x="10.347" y="401.043" width="127.559" height="84.25"/>
		</defs>
		<clipPath id="SVGID_88_">
			<use xlink:href="#SVGID_87_"  overflow="visible"/>
		</clipPath>
		<path clip-path="url(#SVGID_88_)" fill="#A2978A" d="M221.619,445.504v3.99h1.173v-2.24c0-0.346,0.041-0.512,0.173-0.66
			c0.124-0.141,0.306-0.215,0.504-0.215c0.207,0,0.38,0.082,0.479,0.232c0.101,0.148,0.124,0.305,0.124,0.709v2.174h1.175v-2.586
			c0-0.941-0.528-1.52-1.396-1.52c-0.413,0-0.652,0.107-1.09,0.504v-0.389H221.619L221.619,445.504z"/>
	</g>
	<g>
		<defs>
			<rect id="SVGID_89_" x="10.347" y="401.043" width="127.559" height="84.25"/>
		</defs>
		<clipPath id="SVGID_90_">
			<use xlink:href="#SVGID_89_"  overflow="visible"/>
		</clipPath>
		<path clip-path="url(#SVGID_90_)" fill="#A2978A" d="M239.799,447.016h-1.619c0.091-0.463,0.388-0.727,0.843-0.727
			C239.477,446.29,239.748,446.553,239.799,447.016 M241.005,447.842c0-0.529-0.06-0.885-0.184-1.215
			c-0.288-0.793-0.933-1.23-1.792-1.23c-1.197,0-2.04,0.867-2.04,2.105c0,1.256,0.817,2.098,2.049,2.098
			c0.949,0,1.692-0.494,1.916-1.271h-1.188c-0.165,0.248-0.38,0.355-0.694,0.355c-0.504,0-0.825-0.297-0.898-0.842H241.005z"/>
	</g>
	<g>
		<defs>
			<rect id="SVGID_91_" x="10.347" y="401.043" width="127.559" height="84.25"/>
		</defs>
		<clipPath id="SVGID_92_">
			<use xlink:href="#SVGID_91_"  overflow="visible"/>
		</clipPath>
		<path clip-path="url(#SVGID_92_)" fill="#A2978A" d="M245.622,446.942c-0.074-0.949-0.785-1.545-1.825-1.545
			c-1.265,0-2.023,0.803-2.023,2.115c0,1.281,0.769,2.09,1.981,2.09c1.059,0,1.751-0.57,1.917-1.578l-1.141-0.059
			c-0.091,0.471-0.321,0.688-0.743,0.688c-0.545,0-0.834-0.414-0.834-1.174c0-0.727,0.289-1.133,0.825-1.133
			c0.389,0,0.661,0.225,0.728,0.596H245.622L245.622,446.942z"/>
	</g>
	<g>
		<defs>
			<rect id="SVGID_93_" x="10.347" y="401.043" width="127.559" height="84.25"/>
		</defs>
		<clipPath id="SVGID_94_">
			<use xlink:href="#SVGID_93_"  overflow="visible"/>
		</clipPath>
		<path clip-path="url(#SVGID_94_)" fill="#A2978A" d="M251.288,445.504v3.99h1.173v-2.24c0-0.346,0.041-0.512,0.173-0.66
			c0.124-0.141,0.307-0.215,0.504-0.215c0.207,0,0.381,0.082,0.479,0.232c0.099,0.148,0.123,0.305,0.123,0.709v2.174h1.174v-2.586
			c0-0.941-0.528-1.52-1.396-1.52c-0.413,0-0.651,0.107-1.091,0.504v-0.389H251.288L251.288,445.504z"/>
	</g>
	<g>
		<defs>
			<rect id="SVGID_95_" x="10.347" y="401.043" width="127.559" height="84.25"/>
		</defs>
		<clipPath id="SVGID_96_">
			<use xlink:href="#SVGID_95_"  overflow="visible"/>
		</clipPath>
		<path clip-path="url(#SVGID_96_)" fill="#A2978A" d="M258.847,447.52c0,0.719-0.348,1.148-0.942,1.148
			c-0.594,0-0.933-0.43-0.933-1.172c0-0.736,0.338-1.166,0.933-1.166C258.508,446.331,258.847,446.752,258.847,447.52
			 M260.027,447.53c0-1.266-0.858-2.131-2.123-2.131c-1.238,0-2.113,0.875-2.113,2.098c0,1.238,0.875,2.104,2.113,2.104
			C259.136,449.6,260.027,448.735,260.027,447.53"/>
	</g>
	<g>
		<defs>
			<rect id="SVGID_97_" x="10.347" y="401.043" width="127.559" height="84.25"/>
		</defs>
		<clipPath id="SVGID_98_">
			<use xlink:href="#SVGID_97_"  overflow="visible"/>
		</clipPath>
		<path clip-path="url(#SVGID_98_)" fill="#A2978A" d="M266.008,447.52c0,0.719-0.348,1.148-0.942,1.148
			c-0.594,0-0.933-0.43-0.933-1.172c0-0.736,0.338-1.166,0.933-1.166C265.669,446.331,266.008,446.752,266.008,447.52
			 M267.188,447.53c0-1.266-0.858-2.131-2.123-2.131c-1.238,0-2.113,0.875-2.113,2.098c0,1.238,0.875,2.104,2.113,2.104
			C266.297,449.6,267.188,448.735,267.188,447.53"/>
	</g>
	<g>
		<defs>
			<rect id="SVGID_99_" x="10.347" y="401.043" width="127.559" height="84.25"/>
		</defs>
		<clipPath id="SVGID_100_">
			<use xlink:href="#SVGID_99_"  overflow="visible"/>
		</clipPath>
		<path clip-path="url(#SVGID_100_)" fill="#A2978A" d="M270.789,447.323c0,0.609-0.354,1.008-0.893,1.008
			c-0.52,0-0.884-0.404-0.884-0.992c0-0.586,0.364-0.992,0.893-0.992C270.427,446.346,270.789,446.752,270.789,447.323
			 M271.922,449.116v-3.586h-1.115l0.033,0.486c-0.298-0.428-0.653-0.619-1.165-0.619c-1.018,0-1.776,0.844-1.776,1.959
			c0,1.121,0.752,1.924,1.801,1.924c0.446,0,0.729-0.107,1.074-0.43v0.266c0,0.395-0.041,0.537-0.197,0.676
			c-0.134,0.117-0.331,0.176-0.579,0.176c-0.389,0-0.618-0.125-0.701-0.373h-1.215c0.083,0.818,0.752,1.271,1.866,1.271
			c0.694,0,1.239-0.184,1.604-0.537C271.83,450.055,271.922,449.766,271.922,449.116"/>
	</g>
	<g>
		<defs>
			<rect id="SVGID_101_" x="10.347" y="401.043" width="127.559" height="84.25"/>
		</defs>
		<clipPath id="SVGID_102_">
			<use xlink:href="#SVGID_101_"  overflow="visible"/>
		</clipPath>
		<path clip-path="url(#SVGID_102_)" fill="#A2978A" d="M275.406,445.504l-0.52,1.801c-0.092,0.355-0.157,0.627-0.207,0.893
			l-0.05-0.158c-0.091-0.33-0.091-0.338-0.207-0.711l-0.586-1.824h-1.256l1.313,3.354c0.142,0.346,0.148,0.373,0.148,0.512
			c0,0.348-0.189,0.504-0.604,0.504h-0.347v0.883h0.686c0.893,0,1.082-0.164,1.454-1.229l1.388-4.023H275.406L275.406,445.504z"/>
	</g>
	<g>
		<defs>
			<rect id="SVGID_103_" x="10.347" y="401.043" width="127.559" height="84.25"/>
		</defs>
		<clipPath id="SVGID_104_">
			<use xlink:href="#SVGID_103_"  overflow="visible"/>
		</clipPath>
		<path clip-path="url(#SVGID_104_)" fill="#A2978A" d="M228.961,447.512c0,0.678-0.348,1.139-0.851,1.139
			c-0.504,0-0.843-0.461-0.843-1.154c0-0.695,0.339-1.156,0.843-1.156C228.623,446.34,228.961,446.801,228.961,447.512
			 M230.094,449.495v-5.51h-1.174v1.818c-0.28-0.289-0.595-0.414-1.023-0.414c-1.074,0-1.784,0.842-1.784,2.115
			c0,1.256,0.702,2.098,1.76,2.098c0.486,0,0.801-0.146,1.1-0.537v0.432h1.122V449.495z"/>
	</g>
	<g>
		<defs>
			<rect id="SVGID_105_" x="10.347" y="401.043" width="127.559" height="84.25"/>
		</defs>
		<clipPath id="SVGID_106_">
			<use xlink:href="#SVGID_105_"  overflow="visible"/>
		</clipPath>
		<path clip-path="url(#SVGID_106_)" fill="#A2978A" d="M247.695,443.985h-1.174v5.51h1.174v-2.238c0-0.422,0.024-0.537,0.156-0.67
			c0.124-0.131,0.314-0.205,0.513-0.205c0.197,0,0.363,0.074,0.464,0.205c0.105,0.141,0.132,0.289,0.132,0.67v2.238h1.173v-2.453
			c0-0.604-0.099-0.941-0.354-1.223c-0.258-0.273-0.629-0.43-1.024-0.43c-0.413,0-0.729,0.141-1.058,0.455L247.695,443.985
			L247.695,443.985z"/>
	</g>
	<g>
		<defs>
			<rect id="SVGID_107_" x="10.347" y="401.043" width="127.559" height="84.25"/>
		</defs>
		<clipPath id="SVGID_108_">
			<use xlink:href="#SVGID_107_"  overflow="visible"/>
		</clipPath>
		<path clip-path="url(#SVGID_108_)" fill="#A2978A" d="M281.197,438.749c0.092-0.461,0.39-0.727,0.844-0.727
			s0.727,0.266,0.775,0.727H281.197z M284.022,439.575c0-0.527-0.058-0.883-0.182-1.213c-0.289-0.793-0.935-1.23-1.793-1.23
			c-1.197,0-2.04,0.865-2.04,2.105c0,1.256,0.817,2.098,2.049,2.098c0.949,0,1.693-0.494,1.916-1.271h-1.189
			c-0.164,0.246-0.38,0.355-0.692,0.355c-0.504,0-0.826-0.299-0.901-0.844H284.022z M279.306,438.674
			c-0.073-0.949-0.785-1.543-1.824-1.543c-1.265,0-2.023,0.799-2.023,2.113c0,1.281,0.768,2.09,1.98,2.09
			c1.06,0,1.752-0.57,1.918-1.578l-1.141-0.057c-0.091,0.471-0.322,0.686-0.744,0.686c-0.545,0-0.834-0.414-0.834-1.172
			c0-0.729,0.289-1.133,0.826-1.133c0.388,0,0.661,0.223,0.728,0.594H279.306z M270.996,437.237v3.99h1.173v-2.238
			c0-0.348,0.042-0.512,0.174-0.66c0.124-0.143,0.306-0.215,0.504-0.215c0.206,0,0.38,0.082,0.479,0.23
			c0.099,0.148,0.124,0.307,0.124,0.711v2.172h1.173v-2.586c0-0.941-0.529-1.52-1.396-1.52c-0.413,0-0.651,0.107-1.091,0.506v-0.391
			H270.996L270.996,437.237z M267.246,438.749c0.091-0.461,0.389-0.727,0.843-0.727s0.728,0.266,0.775,0.727H267.246z
			 M270.071,439.575c0-0.527-0.058-0.883-0.182-1.213c-0.289-0.793-0.934-1.23-1.793-1.23c-1.196,0-2.04,0.865-2.04,2.105
			c0,1.256,0.818,2.098,2.05,2.098c0.948,0,1.692-0.494,1.916-1.271h-1.189c-0.165,0.246-0.38,0.355-0.693,0.355
			c-0.504,0-0.825-0.299-0.9-0.844H270.071z M265.14,435.717h-1.173v0.967h1.173V435.717z M265.14,437.237h-1.173v3.99h1.173
			V437.237z M263.108,438.674c-0.073-0.949-0.784-1.543-1.825-1.543c-1.265,0-2.023,0.799-2.023,2.113
			c0,1.281,0.769,2.09,1.983,2.09c1.057,0,1.751-0.57,1.915-1.578l-1.141-0.057c-0.091,0.471-0.321,0.686-0.742,0.686
			c-0.547,0-0.835-0.414-0.835-1.172c0-0.729,0.288-1.133,0.825-1.133c0.39,0,0.661,0.223,0.729,0.594H263.108z M258.466,437.444
			c-0.049-0.471-0.132-0.752-0.297-1.016c-0.339-0.553-0.983-0.834-1.9-0.834c-1.388,0-2.214,0.637-2.214,1.701
			c0,0.445,0.157,0.842,0.438,1.082c0.248,0.215,0.609,0.371,1.197,0.512l0.999,0.248c0.39,0.1,0.596,0.289,0.596,0.563
			c0,0.379-0.389,0.619-1.024,0.619c-0.752,0-1.106-0.281-1.132-0.908h-1.239c0.009,1.23,0.868,1.939,2.354,1.939
			c1.429,0,2.305-0.701,2.305-1.842c0-0.438-0.141-0.793-0.421-1.047c-0.266-0.248-0.604-0.398-1.215-0.547l-1.115-0.256
			c-0.338-0.082-0.504-0.238-0.504-0.471c0-0.348,0.355-0.561,0.941-0.561c0.62,0,0.99,0.271,0.99,0.725v0.092H258.466
			L258.466,437.444z M251.767,437.288h-0.759v-0.281c0-0.23,0.141-0.355,0.413-0.355h0.346v-0.934h-0.644
			c-0.867,0-1.288,0.422-1.288,1.281v0.289h-0.555v0.826h0.555v3.113h1.173v-3.113h0.759V437.288z M246.688,438.063
			c0.604,0,0.94,0.422,0.94,1.191c0,0.717-0.348,1.146-0.94,1.146c-0.596,0-0.935-0.43-0.935-1.174
			C245.754,438.493,246.093,438.063,246.688,438.063 M246.688,437.131c-1.239,0-2.115,0.875-2.115,2.096
			c0,1.24,0.876,2.107,2.115,2.107c1.229,0,2.121-0.867,2.121-2.074C248.81,437.997,247.951,437.131,246.688,437.131 M242.5,435.717
			h-1.173v5.51h1.173V435.717z M238.287,438.063c0.603,0,0.94,0.422,0.94,1.191c0,0.717-0.347,1.146-0.94,1.146
			c-0.595,0-0.935-0.43-0.935-1.174C237.354,438.493,237.692,438.063,238.287,438.063 M238.287,437.131
			c-1.239,0-2.114,0.875-2.114,2.096c0,1.24,0.875,2.107,2.114,2.107c1.229,0,2.123-0.867,2.123-2.074
			C240.41,437.997,239.551,437.131,238.287,437.131 M233.331,438.063c0.603,0,0.941,0.422,0.941,1.191
			c0,0.717-0.348,1.146-0.941,1.146c-0.595,0-0.934-0.43-0.934-1.174C232.398,438.493,232.737,438.063,233.331,438.063
			 M233.331,437.131c-1.239,0-2.114,0.875-2.114,2.096c0,1.24,0.875,2.107,2.114,2.107c1.229,0,2.123-0.867,2.123-2.074
			C235.454,437.997,234.595,437.131,233.331,437.131 M227.904,435.717h-1.172v5.51h1.172v-2.238c0-0.422,0.024-0.537,0.156-0.668
			c0.124-0.135,0.314-0.207,0.515-0.207c0.197,0,0.361,0.072,0.462,0.207c0.105,0.141,0.132,0.289,0.132,0.668v2.238h1.173v-2.453
			c0-0.602-0.099-0.941-0.354-1.223c-0.257-0.271-0.628-0.43-1.023-0.43c-0.413,0-0.728,0.141-1.059,0.455L227.904,435.717
			L227.904,435.717z M225.79,438.674c-0.074-0.949-0.785-1.543-1.825-1.543c-1.264,0-2.023,0.799-2.023,2.113
			c0,1.281,0.769,2.09,1.981,2.09c1.059,0,1.751-0.57,1.917-1.578l-1.14-0.057c-0.092,0.471-0.322,0.686-0.744,0.686
			c-0.545,0-0.834-0.414-0.834-1.172c0-0.729,0.289-1.133,0.825-1.133c0.389,0,0.661,0.223,0.728,0.594H225.79z M221.148,437.444
			c-0.051-0.471-0.133-0.752-0.298-1.016c-0.339-0.553-0.981-0.834-1.898-0.834c-1.39,0-2.215,0.637-2.215,1.701
			c0,0.445,0.156,0.842,0.438,1.082c0.248,0.215,0.611,0.371,1.198,0.512l0.999,0.248c0.388,0.1,0.595,0.289,0.595,0.563
			c0,0.379-0.388,0.619-1.023,0.619c-0.752,0-1.106-0.281-1.133-0.908h-1.238c0.009,1.23,0.867,1.939,2.354,1.939
			c1.429,0,2.306-0.701,2.306-1.842c0-0.438-0.142-0.793-0.423-1.047c-0.264-0.248-0.603-0.398-1.214-0.547l-1.115-0.256
			c-0.339-0.082-0.504-0.238-0.504-0.471c0-0.348,0.355-0.561,0.942-0.561c0.619,0,0.991,0.271,0.991,0.725v0.092H221.148
			L221.148,437.444z"/>
	</g>
	<g>
		<defs>
			<rect id="SVGID_109_" x="10.347" y="401.043" width="127.559" height="84.25"/>
		</defs>
		<clipPath id="SVGID_110_">
			<use xlink:href="#SVGID_109_"  overflow="visible"/>
		</clipPath>
		<path clip-path="url(#SVGID_110_)" d="M275.448,428.969l-0.521,1.803c-0.091,0.354-0.157,0.627-0.207,0.891l-0.049-0.156
			c-0.091-0.33-0.091-0.34-0.207-0.711l-0.586-1.826h-1.256l1.313,3.355c0.141,0.346,0.148,0.371,0.148,0.512
			c0,0.346-0.19,0.504-0.604,0.504h-0.347v0.883h0.686c0.893,0,1.082-0.166,1.454-1.23l1.389-4.023H275.448z M272.07,429.02h-0.72
			v-1.264h-1.172v1.264h-0.563v0.826h0.563v1.816c0,0.621,0.049,0.834,0.231,1.033c0.173,0.189,0.429,0.264,0.939,0.264h0.72v-0.883
			h-0.421c-0.272,0-0.299-0.051-0.299-0.678v-1.553h0.72L272.07,429.02L272.07,429.02z M268.807,427.45h-1.173v0.967h1.173V427.45z
			 M268.807,428.969h-1.173v3.99h1.173V428.969z M266.792,430.168c-0.1-0.844-0.728-1.305-1.751-1.305
			c-1.058,0-1.702,0.486-1.702,1.287c0,0.637,0.339,0.959,1.215,1.148l0.727,0.166c0.313,0.074,0.445,0.182,0.445,0.363
			c0,0.23-0.247,0.387-0.61,0.387c-0.472,0-0.718-0.18-0.783-0.553h-1.1c0.065,0.885,0.752,1.404,1.857,1.404
			c1.106,0,1.793-0.527,1.793-1.371c0-0.322-0.107-0.619-0.298-0.801c-0.173-0.182-0.421-0.289-0.908-0.389l-0.734-0.156
			c-0.372-0.084-0.487-0.156-0.487-0.307c0-0.197,0.223-0.33,0.562-0.33c0.389,0,0.628,0.158,0.678,0.455H266.792z M260.209,428.969
			v3.99h1.173v-1.123c0-0.777,0.041-1.148,0.157-1.412c0.132-0.297,0.462-0.479,0.866-0.479c0.083,0,0.157,0.008,0.298,0.023v-1.105
			c-0.852-0.008-1.148,0.172-1.379,0.816l0.032-0.711H260.209z M256.541,430.483c0.091-0.465,0.389-0.729,0.843-0.729
			s0.728,0.264,0.776,0.729H256.541z M259.365,431.307c0-0.527-0.058-0.883-0.182-1.213c-0.289-0.793-0.934-1.23-1.793-1.23
			c-1.196,0-2.04,0.867-2.04,2.105c0,1.256,0.818,2.098,2.049,2.098c0.949,0,1.693-0.494,1.917-1.271h-1.189
			c-0.165,0.248-0.38,0.355-0.693,0.355c-0.504,0-0.825-0.297-0.899-0.844H259.365z M253.56,432.959l1.354-3.99h-1.255l-0.405,1.529
			c-0.059,0.24-0.157,0.693-0.248,1.148c-0.132-0.48-0.23-0.867-0.313-1.148l-0.445-1.529h-1.23l1.43,3.99H253.56z M250.272,427.45
			h-1.174v0.967h1.174V427.45z M250.272,428.969h-1.174v3.99h1.174V428.969z M244.358,428.969v3.99h1.173v-2.238
			c0-0.348,0.041-0.512,0.174-0.66c0.124-0.141,0.306-0.215,0.504-0.215c0.207,0,0.38,0.082,0.479,0.23
			c0.101,0.148,0.124,0.307,0.124,0.711v2.172h1.174v-2.586c0-0.941-0.527-1.52-1.396-1.52c-0.413,0-0.652,0.107-1.09,0.504v-0.389
			H244.358L244.358,428.969z M241.996,427.45v3.643c0,0.373-0.06,0.537-0.224,0.695c-0.183,0.156-0.445,0.248-0.753,0.248
			c-0.297,0-0.562-0.092-0.742-0.248c-0.165-0.158-0.224-0.322-0.224-0.695v-3.643h-1.238v3.727c0,0.693,0.182,1.131,0.595,1.438
			c0.422,0.305,0.981,0.471,1.609,0.471c0.637,0,1.198-0.166,1.619-0.471c0.413-0.307,0.596-0.744,0.596-1.438v-3.727H241.996z
			 M233.893,429.795c0.604,0,0.941,0.422,0.941,1.191c0,0.717-0.348,1.146-0.941,1.146s-0.934-0.43-0.934-1.172
			C232.959,430.225,233.298,429.795,233.893,429.795 M233.893,428.864c-1.238,0-2.114,0.875-2.114,2.098
			c0,1.238,0.876,2.105,2.114,2.105c1.231,0,2.123-0.867,2.123-2.072C236.016,429.731,235.156,428.864,233.893,428.864
			 M231.258,429.02h-0.719v-1.264h-1.174v1.264h-0.562v0.826h0.562v1.816c0,0.621,0.051,0.834,0.231,1.033
			c0.173,0.189,0.43,0.264,0.941,0.264h0.719v-0.883h-0.421c-0.272,0-0.298-0.051-0.298-0.678v-1.553h0.719L231.258,429.02
			L231.258,429.02z M228.078,427.45h-1.174v5.51h1.174V427.45z M224.766,431.67c-0.188,0.34-0.471,0.504-0.859,0.504
			c-0.362,0-0.595-0.156-0.595-0.42c0-0.24,0.183-0.381,0.604-0.479l0.421-0.092c0.198-0.041,0.306-0.074,0.43-0.125L224.766,431.67
			L224.766,431.67z M223.411,430.225c0.049-0.32,0.28-0.479,0.701-0.479c0.389,0,0.619,0.141,0.619,0.371
			c0,0.158-0.091,0.232-0.354,0.273l-0.637,0.107c-1.114,0.182-1.586,0.57-1.586,1.314c0,0.75,0.588,1.254,1.463,1.254
			c0.479,0,0.752-0.1,1.147-0.42c0.041,0.148,0.041,0.172,0.091,0.313h1.197c-0.132-0.197-0.148-0.256-0.148-0.686v-1.832
			c0-0.596-0.106-0.91-0.396-1.166c-0.313-0.281-0.776-0.42-1.379-0.42c-1.124,0-1.694,0.445-1.769,1.369H223.411z M219.834,430.836
			h-1.247l0.669-2.156L219.834,430.836z M220.107,431.852l0.297,1.107h1.404l-1.752-5.51h-1.544l-1.925,5.51h1.347l0.348-1.107
			H220.107z"/>
	</g>
	<g>
		<defs>
			<rect id="SVGID_111_" x="10.347" y="401.043" width="127.559" height="84.25"/>
		</defs>
		<clipPath id="SVGID_112_">
			<use xlink:href="#SVGID_111_"  overflow="visible"/>
		</clipPath>
		<path clip-path="url(#SVGID_112_)" fill="#FFD200" d="M196.319,432.774h2.561c0,1.588-1.123,2.607-2.561,2.699v2.498
			c3.036-0.168,5.299-2.207,5.299-6.008v-4.484h-5.299V432.774z"/>
	</g>
	<g>
		<defs>
			<rect id="SVGID_113_" x="10.347" y="401.043" width="127.559" height="84.25"/>
		</defs>
		<clipPath id="SVGID_114_">
			<use xlink:href="#SVGID_113_"  overflow="visible"/>
		</clipPath>
		<path clip-path="url(#SVGID_114_)" fill="#FFD200" d="M203.383,432.774h2.56c0,1.588-1.123,2.607-2.56,2.699v2.498
			c3.036-0.168,5.298-2.207,5.298-6.008v-4.484h-5.298V432.774z"/>
	</g>
</g>
</svg>
